<svg xmlns="http://www.w3.org/2000/svg" xmlns:xlink="http://www.w3.org/1999/xlink" xmlns:inkscape="http://www.inkscape.org/namespaces/inkscape" version="1.1" width="293.835" height="146.811" viewBox="0 0 293.835 146.811">
<defs>
<clipPath id="clip_1">
<path transform="matrix(1,0,0,-1,0,146.811)" d="M0 146.811H293.835V0H0Z"/>
</clipPath>
</defs>
<g clip-path="url(#clip_1)">
<path transform="matrix(1,0,0,-1,163.221,75.8177)" d="M0 0C-.425 1.204-2.311 1.518-2.797 2.582-3.012 3.052-2.574 3.638-2.655 3.777-2.745 3.932-5.423 5.609-5.759 5.55L-6.422 4.705-3.857 3.197-4.707 2.139ZM-111.756 .853C-110.362 .539-110.497 1.366-109.887 1.977-109.312 2.553-108.177 2.489-109.411 3.418-110.932 3.203-112.193 2.575-111.756 .853M-101.696 6.83C-102.064 6.286-104.196 4.053-103.62 3.419-102.003 3.708-99.905 5.288-101.696 6.83M43-4.708C41.778-4.835 40.378-4.08 39.133-3.897 38.685-3.831 37.573-3.536 37.683-4.276 39.427-4.082 41.355-5.514 42.974-5.432 43.335-5.414 46.295-4.596 45.386-3.855 45.045-3.578 43.688-4.635 43-4.708M68.939-13.266C70.636-15.468 73.498-16.597 76.218-16.679 75.407-15.418 73.425-15.646 72.069-15.054 70.981-14.578 70.171-13.35 68.939-13.266M59.089-17.541C56.393-18.119 54.055-17.233 51.385-17.115L55.886-18.387C56.796-18.17 59.445-19.135 59.089-17.541M-101.037 2.326-101.051 1.281C-99.963 .985-100.341 1.665-100.033 1.959-99.263 2.695-97.843 4.295-99.561 5.124-100.401 5.529-100.667 2.731-101.037 2.326M88.633-4.283C86.42-4.154 86.792-5.384 86.056-6.176 85.187-7.111 83.408-6.814 83.5-8.128 84.61-8.248 89.52-5.182 88.633-4.283M103.208-70.366C105.276-70.696 107.537-70.377 109.617-70.993 107.573-68.903 103.953-70.354 101.486-69.287 101.171-70.454 102.459-70.246 103.208-70.366M-100.623 8.121C-98.487 7.359-98.41 11.278-99.599 11.51L-101.055 11.113ZM-105.076 3.153-103.116 5.982-104.639 7.035-106.6 4.206ZM-21.412 18.384C-23.114 18.477-22.51 16.737-22.796 15.708-22.963 15.106-23.746 14.887-23.548 14.111L-21.626 14.967ZM-101.698-7.264C-101.012-6.849-98.753-5.33-98.914-4.502-99.917-3.099-101.128-5.47-102.277-5.617ZM44.961-14.977C42.035-14.446 39.402-13.091 36.399-14.122L41.217-14.648 44.392-15.762ZM-98.698 15.401C-96.782 15.333-99.787 20.983-100.623 20.094-99.999 19.195-99.971 15.446-98.698 15.401M89.064-10.264C90.775-9.952 92.061-9.583 93.771-10.267L92.063-8.773 94.2-6.849C92.156-7.414 90.718-9.037 89.064-10.264M-14.619 15.763-17.13 15.818-17.124 14.537-15.846 14.963-16.269 12.4C-14.683 12.508-13.745 14.406-14.619 15.763M-89.062 29.503-86.918 25.23C-83.399 25.622-88.239 30.279-89.062 29.503M104.907-7.707C102.646-7.497 102.275-10.411 100.591-11.304L96.774-12.402C101.325-13.27 102.203-10.338 104.907-7.707M78.263-22.123C79.381-22.021 81.234-23.3 81.785-21.82L71.51-20.109ZM29.452-22.978C31.022-23.436 32.578-24.089 34.048-24.803L34.256-23.958 23.551-20.964C24.839-22.522 27.577-22.431 29.452-22.978M13.712 16.884 8.994 17.098 13.189 15.895C14.338 15.867 14.891 17.068 16.268 16.248 16.612 18.306 14.143 18.698 13.712 16.884M71.939-22.675 83.392-24.704 84.78-24.386C80.556-23.523 76.296-22.419 71.939-22.675M101.481-63.295 92.49-57.316C92.052-57.715 100.229-63.6 101.481-63.295M14.987-4.285C15.812-5.927 18.271-6.1 19.433-6.897 20.469-7.608 21.419-9.835 23.118-10.268 24.109-9.182 16.434-4.029 14.987-4.285M-107.262 7.259C-108.282 6.317-110.11 4.672-108.538 3.419-106.823 2.939-105.502 6.513-107.262 7.259M-95.914 28.873C-95.604 30.492-98.587 31.679-99.981 31.218L-100.193 30.369C-99.373 30.429-96.3 26.85-95.914 28.873M-89.702 30.791C-88.37 30.116-89.63 33.311-90.027 33.673-90.326 33.944-91.841 34.418-92.359 34.56-92.618 34.631-93.856 35.465-93.765 34.423-93.717 33.87-89.945 31.983-89.702 30.791M-32.486 11.171C-32.061 10.906-30.506 11.041-30.16 11.53-30.626 18.188-34.012 12.124-32.486 11.171M60.805 4.268 62.298 3.845 65.942 3.841C64.987 2.491 62.295 2.814 60.803 2.558 61.946 .99 65.285 3.023 67.224 2.564 66.637 5.528 62.951 4.121 60.805 4.268M67.231-.859C68.536 .004 70.104 .054 71.51 .635 73.919 1.631 74.309 3.337 77.501 1.709 76.235 5.049 72.07 1.69 70.091 .771 69.686 .584 66.271 .061 67.231-.859M78.492-56.959C77.853-56.791 77.82-56.049 77.077-57.1 80.179-58.063 82.866-60.223 86.046-60.971 86.479-61.073 87.444-61.537 87.348-60.739 85.1-60.888 83.291-58.405 81.891-57.848 81.21-57.577 79.413-57.201 78.492-56.959M-98.054 26.509-95.273 22.671C-92.567 25.208-95.075 26.973-98.054 26.509M108.763-32.719C112.29-34.478 116.953-33.802 120.752-33.36L119.468-32.503 120.318-31.224C116.951-32.569 113.437-30.189 110.046-29.945 111.157-30.977 113.949-31.65 115.498-31.979 116.825-32.261 118.795-31.516 119.466-32.931 115.859-33.311 112.363-33.026 108.763-32.719M-96.346 6.838-97.624 6.411C-97.159 7.225-96.42 10.157-97.842 10.251-98.559 10.299-98.281 5.806-98.909 5.129L-97.632 5.561-96.776 3.846ZM-33.466 12.505C-33.815 14.38-35.168 13.829-35.529 14.132-35.594 14.187-34.676 15.344-35.754 15.811-37.187 14.527-34.723 12.535-35.542 10.475-35.465 9.8-33.065 10.346-33.466 12.505M19.269-12.411C22.015-15.542 25.552-18.144 29.893-18.304 30.58-18.33 31.06-18.339 31.258-17.543 28.481-17.327 25.925-17.206 23.578-15.587 22.234-14.661 21.133-12.644 19.269-12.411M-99.773 26.511C-98.403 29.372-101.313 30.181-103.619 29.502-104.274 28.642-100.645 26.325-99.773 26.511M-98.264 2.561C-99.31 1.852-99.098 .491-99.585-.401-99.835-.859-102.877-3.116-101.261-3.423-100.62-3.545-98.306-.974-97.963-.312-97.633 .324-96.762 2.887-98.264 2.561M62.944 5.132C60.38 7.79 58.032 7.304 54.811 6.406L59.951 6.197 54.811 4.705ZM47.962-37.639C47.983-39.713 50.189-40.112 51.518-41.14 54.303-43.296 56.926-46.092 60.375-47.044ZM-107.046-.857C-104.632 .163-101.056-1.33-102.343 2.56L-104.046 1.279-104.262 2.56C-105.051 1.371-106.052 1.041-107.048 .424-107.085 .003-107.028-.436-107.046-.857M-107.684 2.133-110.893-.646C-109.926-2.094-108.227-.307-107.048 .424-106.977 1.225-106.121 1.894-107.684 2.133M54.7-35.183 50.957-33.147C54.521-36.068 55.673-40.731 60.371-42.343L56.532-38.698C55.496-38.039 55.138-35.707 54.7-35.183M54.597-45.763C55.159-45.531 54.502-44.413 54.259-44.173L44.96-38.926C46.884-43.04 51.778-42.675 54.597-45.763M-41.534 19.245C-38.508 19.022-36.835 21.622-38.149 24.33-41.625 24.913-38.666 21.012-41.534 19.245M-92.269 2.136C-90.958 1.862-88.419 7.663-89.066 8.975-90.009 9.167-90.036 8.51-90.366 7.925-90.718 7.303-92.657 3.738-92.741 3.446-92.904 2.87-92.826 2.253-92.269 2.136M92.512-45.957C96.171-46.922 97.172-48.131 99.921-49.887 101.45-50.863 103.174-52.022 104.907-52.604 100.37-48.562 94.972-44.883 88.636-44.914 89.294-46.271 91.174-45.604 92.512-45.957M-109.178-5.352C-109.05-6.967-106.573-4.716-106.15-4.536-104.133-3.678-101.857-4.012-101.912-.862-102.439-.261-104.03-2.587-104.495-2.787-105.05-3.028-105.695-2.555-106.488-2.873-107-3.079-109.22-4.818-109.178-5.352M-30.447 19.015C-30.422 20.355-31.503 22.38-32.931 21.333-32.506 19.49-33.381 18.496-33.735 17.215-34.461 14.586-30.486 16.866-30.447 19.015M-86.498 8.546C-87.557 9.364-90.711 2.817-90.346 1.709-89.291 .568-85.144 7.501-86.498 8.546M54.575-40.225C53.012-38.603 52.437-36.54 50.739-35.075L51.379-37.211 49.242-36.361C53.206-39.285 56.489-43.775 61.232-45.333 59.322-43.358 56.478-42.2 54.575-40.225M97.856-58.581C100.327-60.76 103.686-61.566 105.553-64.153L105.759-63.303 107.476-63.723 99.805-59.201C97.28-57.613 96.341-53.579 92.92-53.895 92.991-54.6 93.966-54.339 94.664-54.926 95.776-55.862 96.556-57.435 97.856-58.581M-59.945 12.396C-58.971 9.741-58.29 7.637-58.66 4.702-54.868 5.463-56.192 12.665-59.945 12.396M-35.317 22.708C-35.73 23.007-36.626 22.867-36.784 22.614-37.102 22.105-36.573 18.09-37.668 16.916L-36.609 16.233C-34.054 16.909-33.378 21.303-35.317 22.708M-106.189 7.696-104.055 8.977-104.052 7.263-101.956 7.315-101.666 10.715-105.804 11.342ZM7.787-7.623C8.038-8.024 11.705-9.67 12.424-8.775 13.569-7.62 13.176-6.711 11.87-5.894 11.277-5.522 8.384-4.691 7.913-4.73 7.166-4.792 7.603-7.329 7.787-7.623M-47.951 20.527C-46.53 19.502-43.756 24.297-45.569 26.547-45.837 26.878-47.99 28.215-48.174 28.212-49.138 28.195-48.51 27.485-48.401 27.149-48.131 26.317-47.486 25.721-47.51 24.576-47.539 23.143-48.948 22.209-47.951 20.527M-41.96 32.073C-41.236 32.026-40.526 32.16-39.951 32.63-37.956 34.263-40.058 40.942-43.024 40.193-43.804 39.996-43.498 39.546-43.326 39.06-42.452 36.594-41.33 35.172-41.96 32.073M105.333-69.283 100.335-65.082 99.343-65.015 100.195-65.861C96.895-66.631 97.913-63.52 95.852-62.726 95.512-62.595 94.104-62.044 94.206-62.866 95.903-62.842 96.555-64.308 96.132-65.863L92.062-62.448C92.508-63.431 92.779-64.51 93.346-65.438 97.293-67.041 97.447-66.698 101.207-67.268 102.227-67.422 103.875-69.568 105.333-69.283M93.772-66.937C93.839-67.26 93.361-67.21 93.141-67.142 91.954-66.78 85.094-61.441 84.356-63.952 84.092-64.849 85.227-66.059 86.067-65.861L85.217-64.36 85.844-63.734 95.725-69.267 96.335-68.439C95.37-68.15 93.906-66.355 93.346-65.438 92.585-65.129 91.96-64.669 91.205-64.587ZM-95.091 31.399C-93.847 30.522-94.477 28.723-92.921 28.644L-94.628 28.22-92.498 24.562C-91.083 23.807-89.664 27.625-90.967 28.67-91.434 29.045-92.459 29.107-92.735 29.478-92.925 29.732-92.115 31.134-92.947 32.256-93.792 33.395-96.316 33.207-97.628 32.922-97.897 31.568-96.062 32.082-95.091 31.399M-98.058-10.908-100.195-10.694-98.914-7.277C-100.499-7.494-101.696-9.212-101.057-10.695L-102.755-10.252-102.34-7.705C-104.269-7.176-103.832-9.501-105.333-9.411-105.528-8.503-104.606-8.309-104.28-7.669-104.033-7.182-104.17-6.494-103.933-6.109-103.852-5.978-100.536-3.898-102.549-3.864-102.943-3.857-105.227-5.443-105.529-6.021-105.594-6.144-106.203-8.59-106.197-8.729-106.085-11.517-99.942-12.216-98.058-10.908M-49.242 28.652C-48.224 28.659-46.94 28.379-46.211 29.258-45.973 29.545-43.916 35.88-43.855 36.329-43.649 37.845-44.586 39.696-46.123 40.106-48.941 40.858-46.47 38.525-46.107 37.123-44.903 32.478-48.885 32.307-49.242 28.652M-89.499 34.845C-86.711 33.536-86.133 27.768-83.502 26.084-81.996 31.822-85.562 36.647-91.631 35.918-91.949 34.504-90.502 35.316-89.499 34.845M-65.241 39.827C-64.25 39.187-63.216 39.056-62.281 38.079-59.538 35.214-61.896 33.215-61.657 29.935-60.29 29.605-61.105 30.879-60.36 31.423-60.068 31.636-59.425 31.535-59.198 31.747-59.047 31.888-58.218 34.829-58.244 35.251-58.351 36.985-61.104 40.484-62.833 40.946-64.077 41.278-67.036 40.987-65.241 39.827M-53.243 30.507C-53.561 30.108-54.489 29.884-54.8 29.291-53.9 27.801-52.453 29.863-51.591 30.782-50.62 31.816-48.553 34.411-48.396 35.748-48.103 38.255-50.451 41.547-53.11 40.853L-53.519 39.781C-49.811 38.13-51.188 33.091-53.243 30.507M-90.843 12.249C-90.127 14.285-91.354 18.969-93.049 20.39-93.353 20.645-96.971 22.642-96.339 21.171-96.022 20.434-94.351 19.642-93.966 18.41-93.255 16.135-94.474 14.371-94.199 12.65-94.075 11.876-93.123 11.117-93.333 10.109L-92.494 9.832C-92.89 11.304-91.102 11.514-90.843 12.249M-86.588 14.006C-86.047 17.759-89.129 22.317-92.915 23.088L-90.118 19.257C-87.795 14.783-89.736 14.276-90.346 9.834-88.409 9.69-86.83 12.326-86.588 14.006M-92.907 7.043C-93.01 7.934-93.964 8.242-94.034 8.741-94.386 11.244-94.429 10.476-94.974 12.269-95.701 14.665-94.449 17.077-97.019 19.635-97.652 20.265-99.344 20.971-98.474 19.47-97.83 18.359-96.998 17.344-96.799 16.006-96.579 14.531-97.107 12.039-96.8 10.929-96.674 10.477-95.893 10.895-95.455 10.419-93.354 8.143-95.526 4.848-96.341 2.564-94.438 2.168-92.743 5.629-92.907 7.043M-44.746 27.374C-44.671 27.368-43.511 28.902-43.251 27.576-42.958 26.078-44.522 26.281-44.547 25.834-44.569 25.435-44.066 24.531-44.068 23.738-44.071 22.855-44.837 20.304-43.866 20.12-42.407 19.843-41.216 21.609-41.102 22.925-40.982 24.302-41.983 24.789-42.002 25.862-42.029 27.38-40.324 28.184-41.586 30.113-42.002 30.748-43.211 30.726-42.821 32.071-43.657 32.916-46.482 27.507-44.746 27.374M130.597-51.755 128.462-52.183C128.14-51.851 128.621-49.177 127.174-49.618 128.408-51.487 126.452-54.886 124.176-53.886 125.392-52.575 125.536-52.246 125.036-50.469 127.421-51.176 126.182-47.904 124.176-48.335 124.82-50.257 124.342-52.241 122.463-53.035 122.392-53.305 122.31-53.956 122.755-53.895L125.658-54.764C126.924-54.639 126.856-53.379 127.468-53.009 128.648-52.297 130.834-53.288 130.597-51.755M122.468-49.187 122.029-51.327 117.325-50.465C118.935-46.629 123.223-48.564 126.475-47.456 126.917-48.548 127.431-48.458 128.596-48.347L129.313-47.052 119.466-47.479C120.053-45.157 117.597-44.506 117.541-42.346 115.727-43.77 118.362-44.703 118.504-46.038 118.681-47.706 116.255-50.562 114.737-51.092 113.838-51.406 112.397-50.996 112.19-51.747 114.032-52.14 115.999-53.195 117.937-53.036 118.235-53.011 119.391-52.579 118.818-52.174L115.183-52.176C115.044-51.13 115.2-51.5 115.781-51.277 117.833-50.487 119.162-51.596 121.18-51.756L120.752-53.46C121.43-53.598 121.894-53.276 122.463-53.035 122.795-51.776 125.175-50.569 122.468-49.187M-82.427 10.696-79.527 12.924C-79.659 15.002-77.737 17.154-77.933 18.992-78.112 20.661-81.839 27.04-84.353 24.796-83.719 23.143-80.806 22.202-80.509 20.731-80.232 19.359-81.176 14.82-81.639 13.322-82 12.155-83.589 11.459-82.427 10.696M-32.968 23.51C-33.793 22.331-30.467 22.161-29.852 22.32-28.433 22.689-25.707 29.215-25.679 30.56-25.658 31.528-26.64 34.857-27.624 35.063-29.672 34.728-27.746 32.526-27.85 31.024-27.959 29.465-30.88 23.553-32.968 23.51M-55.857 35.043C-56.048 32.829-58.522 30.563-56.307 29.085-55.672 29.083-52.886 33.674-52.741 34.531-52.284 37.212-56.58 42.228-59.516 41.049-58.558 38.261-55.532 38.815-55.857 35.043M-67.245 29.73C-66.117 29.744-65.995 28.816-65.864 28.724-65.771 28.659-64.053 29.52-63.81 29.727-61.538 31.66-63.09 35.74-64.875 37.627-65.829 38.637-69.826 41.914-70.651 39.774-65.767 38.259-65.493 33.968-67.245 29.73M-85.418 11.118C-83.793 10.786-80.977 18.916-82.711 20.433-82.785 20.498-83.339 20.204-83.491 20.35-84.506 21.319-86.093 24.37-87.903 23.885L-89.056 22.876C-88.212 21.636-85.728 21.239-85.297 19.792-84.536 17.243-87.258 13.446-85.418 11.118M-38.702 28.639C-39.005 27.566-40.807 26.645-40.676 25.231-40.323 24.901-37.887 26.497-37.662 26.699-36.945 27.343-35.841 28.431-35.628 29.379-35.442 30.204-35.058 33.982-35.129 34.797-35.191 35.497-36.492 38.589-36.914 38.819-37.374 39.07-38.017 38.87-38.535 38.912L-37.218 34.058C-39.702 33.102-38.277 30.146-38.702 28.639M-75.786 26.939C-75.369 27.419-73.9 27.714-73.747 27.891-73.352 28.348-73.166 31.438-73.253 32.244-73.448 34.061-74.901 37.021-76.496 37.995-78.133 38.996-81.364 39.668-81.782 37.205-76.285 37.634-76.176 30.833-75.786 26.939M-71.518 29.801C-71.48 29.599-70.194 29.253-70.647 28.221-63.912 32.668-69.267 40.991-76.216 39.767L-71.733 36.337C-70.447 33.925-71.799 31.286-71.518 29.801M107.499-11.318C109.558-11.999 108.576-15.81 109.204-17.737L107.905-18.817C108.403-17.775 107.461-17.058 107.457-16.055 107.454-15.139 108.2-14.073 107.865-13.11 107.481-12.007 105.211-11.786 104.483-12.834 104.151-10.822 106.057-10.84 107.499-11.318M98.765-14.428C98.954-14.436 102.269-14.079 102.452-14.031 103.047-13.876 103.262-13.052 104.05-13.265L104.276-14.976 105.759-14.545C106.049-16.222 104.353-17.661 105.443-19.145 106.735-19.645 109.414-20.331 109.961-18.521 110.307-17.376 109.66-12.059 108.756-11.346 104.777-8.21 103.555-12.964 102.503-13.159 102.088-13.235 101.473-12.834 100.942-12.929 100.176-13.065 99.424-13.661 98.686-13.654 97.96-13.647 96.726-12.527 96.346-12.836 95.446-13.569 98.414-14.413 98.765-14.428M-73.221 13.903-72.347 13.452C-72.099 13.558-71.836 13.633-71.631 13.816-71.169 14.227-69.151 16.841-69.026 17.409-68.78 18.521-69.158 22.829-69.628 23.901-70.253 25.331-72.128 27.344-73.853 26.936-74.842 26.703-74.165 26.172-74.087 25.872-73.398 23.206-73.431 22.002-70.656 21.159L-71.944 20.769C-72.815 20.047-71.961 15.379-73.221 13.903M-106.035 26.021C-107.205 26.085-108.749 26.497-109.608 25.442-109.064 24.565-108.382 25.25-107.613 24.926-107.411 24.841-104.244 22.599-104.059 22.44-103.579 22.024-103.105 19.502-102.066 18.823L-103.62 11.973C-102.451 11.711-101.757 12.533-101.557 13.582-101.359 14.619-101.04 18.944-101.092 19.908-101.136 20.72-102.337 21.328-101.478 22.66L-98.488 20.952-98.673 23.97-102.764 24.802C-102.307 27.009-103.37 28.331-105.552 28.654-106.74 28.829-106.028 27.244-106.188 26.512-105.407 26.809-104.978 27.181-104.232 26.558-104.068 26.421-102.199 23.23-102.34 23.092-104.044 23.447-105.926 23.454-105.518 25.661ZM95.915-31.228C97.24-33.353 102.547-38.151 104.794-35.387 105.533-34.477 105.211-29.193 104.85-28.073 104.524-27.063 102.38-26.919 101.481-27.132 98.624-27.81 98.496-31.049 99.76-29.937 100.039-29.692 100.41-27.856 101.91-28.235 100.139-30.498 100.4-32.136 101.48-34.643 100.617-35.436 97.066-31.269 95.915-31.228M-59.967 24.107C-60.216 26.739-62.008 28.666-64.772 28.549-65.087 28.536-66.07 28.335-65.939 27.801-64.844 27.746-63.407 25.725-63.121 24.804-62.478 22.729-64.375 19.641-62.52 18.386L-61.662 19.667C-61.235 17.291-62.318 18.289-62.817 17.863-63.489 17.291-65.062 12.707-63.58 12.401-62.927 12.266-60.621 16.406-60.469 16.999-60.115 18.383-60.822 19.189-60.779 20.281-60.73 21.501-59.803 22.362-59.967 24.107M-68.937 14.111C-65.376 13.673-63.174 16.125-64.096 19.592-64.334 20.487-65.181 21.555-65.284 22.182-65.435 23.101-64.862 23.924-65.272 25.251-65.812 26.995-68.202 28.45-69.824 27.114-70.498 24.776-67.418 24.002-67.213 22.426-67.096 21.526-67.669 20.687-67.675 19.862-67.682 18.861-67.063 17.853-67.289 16.988-67.495 16.197-69.175 15.334-68.937 14.111M-33.749 29.213-37.251 24.378C-33.864 23.069-32.432 24.939-31.706 28.044L-30.438 27.8C-28.882 30.932-29.618 35.231-32.242 37.506-33.099 38.249-34.021 37.783-34.663 36.994-32.223 34.093-32.21 32.638-33.749 29.213M35.966-20.965C29.89-20.423 24.086-18.288 19.273-14.545 19.1-15.351 19.667-15.581 20.159-16.008 24.076-19.411 29.03-20.26 33.827-21.815 33.878-21.697 33.749-21.43 33.824-21.391ZM48.402-23.757C49.818-21.609 49.246-20.186 47.246-18.891 43.48-16.454 39.149-17.523 35.97-20.321L41.346-18.42C42.948-17.937 47.829-19.088 48.004-20.743 48.277-23.344 46.695-24.901 44.106-24.379 43.739-23.011 45.203-23.757 45.629-23.135 47.697-20.117 39.945-17.249 38.951-20.746L39.822-22.239 37.681-21.82C38.693-23.207 40.74-22.985 42.286-23.862 42.843-24.177 43.114-24.73 43.248-24.809 45.142-25.178 47.108-25.722 48.402-23.757M33.823-22.67 32.115-22.247 32.535-22.892C34.691-23.46 37.899-23.806 39.921-24.496 40.911-24.834 46.369-28.017 46.675-27.799L46.464-26.95C52.257-26.625 53.649-19.769 48.3-17.41 43.626-15.349 39.917-16.354 35.54-18.4 35.363-20.428 38.653-17.58 39.789-17.293 43.328-16.399 51.139-17.178 50.933-21.992 50.747-26.362 46.237-26.583 43.248-24.809 40.024-24.181 36.931-22.822 33.827-21.815 33.749-21.997 33.881-22.405 33.823-22.67M-25.684 25.438C-23.538 24.435-24.565 23.529-26.324 24.806-28.707 21.926-29.928 18.677-30.399 14.966-26.768 15.014-27.946 18.764-27.182 20.516-26.62 21.805-24.758 22.078-23.96 22.858-22.343 24.437-20.489 32.531-23.4 33.299-26.041 33.996-24.094 30.449-24.094 29.803-24.094 28.665-25.036 26.468-25.684 25.438M122.731-44.963C122.119-45.033 120.13-45.183 119.896-45.761L129.312-45.335 127.603-44.478 129.307-43.422 126.747-40.845 128.028-39.99 128.02-39.143C126.269-38.495 127.097-37.143 125.878-36.139 125.368-35.72 119.993-34.897 119.549-35.163 118.645-35.706 119.906-36.178 116.897-36.784 116.719-37.049 117.361-37.958 115.609-37.643 116.042-39.635 117.585-38.873 119.022-39.828L118.61-41.057 120.478-41.085 122.05-36.648C124.601-35.213 123.901-40.479 122.771-41.371 122.335-41.716 121.303-41.453 121.179-42.339 123.961-42.746 123.911-39.197 126.741-38.922 126.954-40.626 124.627-39.594 125.034-41.054L128.026-42.352 127.783-43.221C126.494-43.559 124.369-44.385 123.962-42.766L123.473-43.637 120.324-43.631 126.315-44.905C125.123-44.937 123.924-44.826 122.731-44.963M118.178-35.075C114.89-35.909 111.299-34.245 107.908-35.506L111.886-36.015C113.486-37.763 114.845-37.197 116.897-36.784 117.511-35.867 118.386-36.21 118.178-35.075M-81.354 26.941-80.076 27.792C-81.1 25.026-77.136 23.394-76.715 21.924-76.619 21.591-77.053 16.383-77.173 15.705-77.458 14.095-78.669 13.176-79.22 11.761L-77.685 11.943-76.866 11.119C-75.012 12.018-75.897 13.303-75.589 14.114-75.072 15.476-73.94 16.814-73.824 18.375-73.722 19.756-74.558 20.06-74.707 20.9-74.831 21.595-74.373 22.42-74.506 23.267-74.901 25.777-77.484 26.409-79.645 26.516-79.582 27.965-78.396 29.137-78.33 30.579-78.192 33.555-81.444 37.034-84.249 37.555-84.828 37.663-88.969 37.284-87.781 36.35-83.219 36.371-80.642 30.859-81.354 26.941M120.954-19.879C121.046-19.204 122.182-17.626 123.092-17.974 123.885-18.229 125.123-26.162 124.945-27.06 124.505-29.277 121.089-30.476 119.04-29.937 119.297-29.089 120.659-29.283 121.409-28.674 124.747-25.961 120.557-22.809 120.954-19.879M111.76-22.887 114.755-21.392C113.034-23.184 114.403-24.189 114.761-26.092L115.622-25.446 114.758-22.673 116.037-22.668C115.663-24.329 118.931-26.948 115.822-27.196 115.165-27.249 113.321-25.827 113.046-26.942 117.596-28.79 121.051-27.743 119.273-22.221 118.645-20.27 117.639-20.672 116.042-20.748 116.799-19.989 118.506-19.372 119.467-19.871 119.743-20.015 121.999-24.981 122.031-25.484 122.176-27.788 119.113-29.73 117.213-29.447 116.993-29.414 113.25-28.113 113.058-28.001 112.46-27.653 111.41-25.697 110.167-25.33 109.765-25.211 107.88-24.848 107.907-25.66 108.891-25.57 110.202-26.3 110.777-27.044 110.88-27.177 110.466-27.688 110.52-27.75 110.785-28.057 117.595-30.623 118.071-30.714 119.561-30.997 124.254-30.141 125.262-31.643 125.747-32.366 124.898-33.7 126.311-33.361L126.563-31.652 123.322-30.157C123.901-28.77 126.997-30.364 128.032-29.938L128.034-31.652C130.631-29.407 126.423-28.674 124.604-29.081 126.19-27.225 125.334-24.835 125.031-22.673 125.387-22.276 129.98-22.638 129.74-20.535L125.031-22.044 124.604-20.963C125.497-21.307 129.249-19.193 128.456-18.396L124.606-20.103 124.893-18.814C126.236-18.737 127.407-17.858 128.029-16.688L124.815-18.392 124.531-17.211C122.419-16.872 118.361-16.951 116.643-18.393 116.066-18.877 116.438-19.518 116.05-19.877 115.069-20.783 112.595-21.207 111.76-22.887M112.419-57.324C112.291-57.793 110.223-61.212 109.925-61.462 107.838-63.21 105.852-60.592 105.768-58.595 107.931-60.733 112.06-57.355 109.854-55.15 108.909-54.206 107.586-54.746 107.05-53.895 109.704-53.722 113.415-53.661 112.419-57.324M117.238-57.142C116.493-56.98 115.396-57.347 115.259-57.262 115.061-57.141 113.316-54.921 115.356-55.211 117.236-55.478 119.19-56.215 120.96-56.888 120.564-55.526 117.835-55.14 116.574-54.854 114.698-54.429 113.542-54.159 111.756-53.679 109.052-52.951 106.379-52.635 103.624-53.468 104.259-54.552 105.869-54.18 104.265-55.593L99.547-50.894 99.135-51.756C98.429-50.923 96.374-50.607 95.757-50.071 94.911-49.336 94.535-48.419 92.771-47.635L86.069-44.914 89.669-47.941C91.253-50.298 92.045-51.803 90.698-54.456 88.166-59.442 86.076-55.51 82.641-54.323 85.535-59.18 91.635-58.818 92.415-52.705 92.568-51.503 90.794-48.967 92.275-49.181 92.871-49.267 96.902-51.109 97.646-51.521 99.696-52.656 100.46-53.673 102.035-55.263 102.345-55.577 103.474-56.011 102.156-56.001 101.295-55.492 100.25-55.741 99.36-55.368 97.969-54.785 96.197-51.966 94.204-52.392L104.89-59.927 104.477-61.158C106.102-60.663 106.82-62.394 107.887-62.695 110.516-63.439 113.444-57.734 113.683-55.604 115.21-57.009 115.035-59.399 114.033-61.041 113.554-61.825 109.984-64.727 108.982-63.721 108.698-64.759 110.704-64.827 111.333-64.353L115.057-60.72C115.821-60.663 116.622-60.68 117.355-60.922 118.179-61.195 118.92-63.049 119.464-62.442 120.214-61.602 116.753-59.354 115.616-60.308L115.61-57.738 118.203-57.933 122.033-60.304C123.061-59.197 117.927-57.291 117.238-57.142M70.65-8.983C68.103-8.802 66.706-4.72 69.793-4.707ZM75.565-.87C76.745-1.143 77.013-1.862 77.389-2.898 77.764-3.931 78.449-9.47 78.293-10.378 77.923-12.521 75.333-12.562 73.651-12.402 73.823-11.615 75.026-11.959 75.778-11.327 76.142-11.021 76.5-10.416 76.58-9.95 76.655-9.511 75.892-2.934 75.718-2.429 75.456-1.667 74.392-1.405 73.652-1.282 73.542-.547 75.215-.789 75.565-.87M81.783-11.554C83.1-12.724 75.993-14.222 75.362-13.685 77.482-12.2 79.142-10.622 81.783-11.554M64.869-5.562 69.363-2.57C69.033-4.573 66.295-4.95 66.796-7.276L64.661-6.419 64.665-7.27 65.413-7.347 65.116-8.089C66.909-8.894 67.887-9.628 69.795-10.268 69.832-9.991 69.768-9.691 69.799-9.412L73.651-9.411C72.656-7.373 74.86-5.217 73.681-3.605 73.091-2.798 70.692-2.492 70.66-1.929 70.599-.815 74.448-2.024 74.88-2.197 75.096-3.99 75.092-6.143 75.381-7.894 75.514-8.699 76.403-9.06 76.035-9.829 74.911-12.177 71.616-10.879 69.795-10.268 69.556-12.101 68.892-10.331 68.085-11.547 70.456-11.02 71.91-12.543 74.077-12.839L73.221-14.117H79.858C81.292-14.117 83.685-10.486 85.611-9.6 87.157-8.888 88.719-8.872 90.346-8.553L88.211-7.708C89.414-7.403 90.454-6.821 90.777-5.568L85.959-8.142C84.008-10.432 82.315-11.478 79.264-10.647L78.986-5.116 82.639-4.924C81.968-3.686 78.713-4.604 78.376-4.264 78.632-1.76 76.79-1.073 75.362 .419L80.072 0C80.192 .088 79.848 .547 79.651 .644 77.448 1.727 69.25-.882 67.074-2.204 66.272-2.691 64.127-4.479 64.869-5.562M56.273-52.634C56.19-52.045 57.684-49.96 58.231-50.47L59.945-55.599C59.381-56.167 56.446-53.522 56.273-52.634M64.251-57.103C63.491-56.429 63.25-54.166 62.091-54.957L62.942-56.882C60.658-56.981 60.797-53.867 59.949-52.182L62.514-53.251C61.431-52.516 60.77-51.096 59.902-50.301 56.713-47.379 52.233-46.507 48.652-43.794 46.635-42.265 43.928-39.494 41.685-38.521 40.477-37.996 38.678-38.223 37.423-37.249 36.739-37.104 36.762-37.18 36.844-37.826 37.455-42.624 41.526-47.518 45.176-50.467 45.604-48.436 42.784-47.292 41.794-46.148 40.727-44.914 39.906-43.449 38.964-42.122 41.14-39.941 40.037-42.25 40.765-43.733 41.176-44.57 41.998-45.096 42.607-45.763L41.959-42.989C41.96-42.591 42.474-42.696 42.827-42.977 44.168-44.041 44.595-47.497 46.033-48.757 46.097-45.817 43.401-43.963 43.679-41.061 45.37-41.825 47.161-43.299 47.097-45.337L46.029-44.484C45.244-45.606 46.976-46.404 47.336-47.455 47.769-48.716 47.382-50.398 48.387-51.557L47.531-51.964 50.315-55.599C51.24-54.858 49.112-52.717 49.243-52.612L53.292-53.063 53.525-51.753 54.789-51.763 55.24-54.317 53.526-54.53C54.883-55.963 57.577-58.519 59.523-57.098 59.522-56.958 56.281-56.096 58.44-55.608L60.624-56.88 60.376-58.591C61.706-58.975 61.027-57.349 62.208-57.387 64.424-57.46 64.409-60.521 66.798-60.302L65.516-58.597 67.652-58.811C66.912-57.08 65.061-57.822 64.251-57.103M-52.663 15.82-52.666 20.525-50.959 20.526C-50.829 18.716-50.819 16.748-52.663 15.82M-50.385 20.743C-47.995 23.622-48.488 28.052-52.665 28.22-51.884 25.898-51.491 24.861-52.181 22.37-52.383 21.642-51.869 21.178-53.093 21.382-52.604 24.508-53.017 28.599-56.947 28.647-56.804 27.14-55.504 26.046-55.265 24.563-54.862 22.059-56.13 20.671-55.669 18.386-58.355 21.748-55.017 23.954-58.235 28.007-58.465 28.297-59.294 29.478-59.735 28.652-59.424 24.191-57.72 20.124-59.302 15.818-59.607 14.987-60.453 14.593-60.373 13.684-57.615 13.408-58.025 14.57-57.059 16.127-55.919 17.963-56.354 15.935-56.2 15.534-56.03 15.094-55.152 13.794-55.237 13.687-59.406 12.748-55.619 11.361-55.318 10.391-55.087 9.647-54.977 5.728-54.807 5.553-51.414 5.401-52.053 8.707-53.012 10.985-53.539 12.24-54.563 12.865-54.806 14.101L-52.672 15.392C-52.89 14.054-51.602 13.229-51.401 12.167-51.124 10.701-52.127 6.403-50.25 6.067-48.242 5.707-48.669 8.987-48.818 10.47-48.93 11.584-49.676 13.116-49.632 13.916-49.589 14.697-48.683 15.264-48.474 16.12-47.624 19.598-50.4 19.273-50.385 20.743M89.063-32.403C88.597-31.557 86.521-31.755 86.714-30.791 93.461-30.409 93.277-43.004 86.92-42.768L87.354-41.919 83.493-41.274C87.015-41.942 90.33-34.708 89.063-32.403M85.236-39.056C85.63-38.417 87.097-33.836 86.88-33.197 86.629-32.459 84.879-32.638 85.858-31.646 91.028-31.252 87.168-40.38 83.93-40.633 83.664-39.538 84.891-39.614 85.236-39.056M92.06-38.069C95.308-37.093 96.721-40.329 98.513-41.257 98.902-41.458 99.502-41.2 99.771-41.347 100.167-41.565 102.207-42.725 102.282-42.85 102.515-43.239 101.908-44.285 102.337-44.906 99.897-44.992 99.515-42.59 97.779-41.552 95.666-40.288 91.388-40.789 92.06-38.069M52.998-5.663C52.532-5.196 51.352-5.479 51.386-4.714L54.205-4.667C56.495-8.483 57.668-13.066 51.812-13.686 53.856-12.682 54.145-6.813 52.998-5.663M110.897-48.112C111.411-45.872 113.953-43.022 112.57-40.888 111.928-39.897 110.771-40.216 110.476-39.354 111.433-39.336 112.541-39.256 113.347-39.906 115.147-41.36 113.573-46.271 112.466-47.969 110.957-50.283 107.752-51.006 106.192-48.335 107.817-48.702 109.403-49.233 110.897-48.112M71.51-38.92 69.797-38.927C69.784-39.93 71.107-38.641 71.095-39.997 71.082-41.45 69.708-42.315 69.795-43.199 71.198-42.259 71.939-41.313 72.594-39.765L74.913-40.665 74.503-41.485C76.922-41.101 79.413-42.327 81.625-42.639 82.214-42.723 82.983-42.164 83.657-42.376 84.218-42.553 84.146-43.461 84.665-43.627 86.993-44.372 90.491-43.613 92.915-44.481 92.945-42.542 90.161-43.363 89.064-43.623 90.251-41.487 93.693-42.579 95.508-43.391 96.861-43.997 102.914-49.796 103.62-49.184 104.368-48.537 103.04-48.249 102.813-48.083 99.214-45.45 96.504-41.983 91.626-41.709 90.844-41.305 91.866-40.399 92.267-40.354 92.672-40.309 96.606-41.819 97.161-42.168 98.222-42.834 98.937-44.162 100.044-44.848 101.13-45.521 103.263-45.853 104.217-46.668 105.432-47.706 105.075-49.283 107.039-50.263 111.966-52.722 115.399-46.266 115.21-42.135 115.079-39.268 111.964-38.176 109.441-38.511 107.659-38.748 106.508-40.728 104.477-40.207 104.336-42.112 107.626-40.165 108.978-40.168 112.929-40.179 110.18-45.116 110.288-47.504 109.744-48.301 106.537-47.986 105.766-47.264 107.016-46.351 111.283-44.709 108.997-42.752 107.485-41.457 105.569-42.667 103.609-42.141 102-41.71 99.886-40.009 98.347-39.273 96.449-38.366 94.36-37.834 92.47-36.931L92.492-34.644C92.741-34.387 97.545-35.165 97.208-36.78H98.056L97.84-35.503C102.989-39.907 107.965-39.042 107.49-31.421 107.302-28.396 106.909-26.773 104.053-25.449L105.333-25.025C103.269-23.513 100.068-24.71 97.834-24.806 97.192-24.834 96.597-25.098 96.776-24.174 97.845-22.44 98.92-23.529 100.394-23.547 103.464-23.585 106.609-23.716 109.615-23.094 109.557-22.259 108.062-22.827 107.335-22.598 106.772-22.419 106.505-21.975 106.622-21.39 109.113-21.467 111.909-20.658 113.47-18.606 112.254-18.251 112.484-16.884 112.188-15.831L114.325-16.044C111.824-14.906 112.665-14.702 111.855-12.961 111.495-12.188 109.69-9.412 109.689-9.195 109.688-8.741 111.248-8.166 110.9-7.277L107.754-8.568 107.476-9.409C111.971-9.745 111.081-15.61 112.188-18.813 110.145-18.834 109.211-20.898 107.257-20.986 103.844-21.139 101.158-17.973 97.63-18.826L101.156-19.788 105.335-22.666C102.892-23.092 101.044-21.282 98.702-20.956L101.48-22.666 97.673-22.624C96.842-18.953 97.902-14.208 93.931-12.036 89.44-9.579 86.496-12.206 82.851-14.543 82.389-15.466 83.481-14.812 83.8-14.634 84.293-14.36 85.096-13.264 85.636-13.901 83.289-16.604 81.161-16.279 77.927-16.042 81.44-18.691 83.881-15.766 86.919-14.117L84.998-16.684 82.217-18.394C83.146-17.834 84.3-18.139 85.202-17.744 86.195-17.309 87.214-14.92 89.062-15.403 89.535-15.842 87.537-17.968 87.416-18.703 87.227-19.855 88.277-20.335 88.206-21.386 87.705-21.894 84.523-19.01 83.493-19.891 86.061-20.905 88.963-24.985 91.102-21.071 93.03-17.544 92.956-12.951 87.782-13.906 92.534-10.984 95.096-18.012 93.373-21.632 91.694-25.161 88.225-24.698 85.328-22.807 84.587-22.323 84.524-21.595 83.919-21.191 80.191-18.701 78.71-19.045 74.77-18.343 72.406-17.922 70.068-17.264 67.657-17.115L80.642-20.177C82.316-21.238 84.72-24.02 86.515-24.592 87.173-24.802 87.735-24.4 88.308-24.491 89.965-24.756 90.726-25.753 92.282-24.388 97.289-19.994 94.59-11.056 87.353-12.623 89.56-10.491 94.784-12.255 95.631-15.042 95.851-15.765 96.714-20.88 96.738-21.644 96.781-23.041 95.408-25.312 94.194-25.871 92.341-26.724 89.316-24.985 87.352-24.813 87.146-24.979 88.971-27.298 87.576-26.94 82.542-25.649 77.488-22.967 71.939-24.165 73.51-25.3 75.917-24.57 77.711-24.815 81.645-25.351 85.461-26.641 89.06-28.232 89.421-27.137 89.32-26.974 88.636-26.096 90.24-25.722 92.14-27.041 93.542-26.935 94.568-26.857 95.051-25.975 95.818-25.781 97.773-25.285 99.938-25.281 101.91-24.813L96.003-27.249C94.933-27.656 93.059-27.323 92.49-28.654 96.136-28.802 103.09-23.536 105.705-27.647 106.818-29.396 107.444-35.633 105.499-36.733 101.551-38.964 99.202-35.031 96.786-34.406 95.746-34.137 93.983-34.773 92.498-33.993 91.871-33.663 91.299-32.283 90.581-31.634 88.32-29.59 86.01-30.351 83.4-29.825 80.765-29.294 78.05-28.253 75.53-27.848 73.729-27.559 71.669-28.03 69.793-27.37L70.283-25.728 79.666-26.712 87.349-29.302C82.811-25.742 76.627-25.92 71.176-24.927 69.482-24.131 70.294-20.273 68.488-18.631 66.697-17.004 64.782-17.684 63.365-17.266 61.771-16.797 59.083-15.745 57.808-14.757 60.46-14.099 62.912-16.077 65.511-16.254 65.731-14.935 65.147-15.587 64.463-15.398 63.622-15.166 59.275-14.318 59.09-14.113 58.776-13.766 59.164-12.375 60.152-12.395 61.568-12.423 65.988-16.661 68.511-15.396 67.363-14.011 65.083-10.6 63.511-9.913 63.143-9.752 62.395-9.598 62.519-10.263 63.596-10.372 67.49-14.084 66.794-14.973L60.387-11.753C60.032-10.34 57.613-5.842 58.289-4.762 60.357-3.566 63.503-5.398 64.657-3.003 64.433-2.783 58.956-2.229 58.431-2.286 58.157-2.316 57.79-2.681 57.806-2.994L61.658-3.421C57.097-4.735 58.337-3.689 55.643-1.952 55.182-1.654 54.766-1.318 54.176-1.329L46.247-4.497C49.719-4.966 53.87 .066 56.523-3.638 57.173-4.546 59.187-10.312 59.087-11.3 58.801-14.128 55.034-15.74 52.668-14.54 53.129-13.337 54.559-13.942 55.481-13.292 58.415-11.222 56.078-3.93 53.635-3.494 52.142-3.228 46.708-5.003 45.391-6.207L47.101-5.995 46.245-7.27 50.096-6.848C50.035-8.052 50.53-10.29 49.236-10.931 46.896-11.061 45.299-8.223 42.393-8.988 42.013-10.602 44.494-9.802 44.874-9.964 45.083-10.054 47.515-12.641 47.981-13.009 48.436-13.368 49.357-12.95 49.24-13.685 47.005-14.237 46.658-12.349 45.543-11.611 42.614-9.673 39.461-9.084 35.97-9.411 36.432-5.157 43.554-8.632 46.513-8.934 46.987-8.983 48.055-9.321 47.955-8.562L37.947-6.795C37.139-6.523 37.343-5.262 36.841-4.478 35.356-2.155 31.309-1.008 28.691-.864L29.543-1.711 22.696-3.641C23.951-3.345 24.58-4.678 24.701-4.707 25.735-4.955 26.941-4.138 27.598-4.695 30.352-7.031 27.387-7.646 26.996-8.176 26.782-8.466 27.424-9.219 27.404-9.413 29.3-9.709 32.673-8.453 32.554-6.241 32.505-5.334 31.576-4.783 31.688-3.856 33.626-3.858 34.711-5.29 33.961-7.178 33.893-7.348 31.84-9.958 31.683-10.053 30.597-10.705 28.94-9.867 27.835-10.48 28.702-11.465 30.977-11.322 32.02-10.815 32.226-10.715 34.8-7.474 34.896-7.267 36.332-4.186 31.939-2.407 29.548-2.566 29.43-1.857 30.602-2.092 31.057-2.126 32.156-2.206 33.487-2.465 34.419-3.05 37.298-4.856 36.51-7.202 34.68-9.623 32.154-12.968 29.84-13.118 26.548-10.696 27.809-12.049 28.731-13.477 31.03-13.253 32.527-13.106 34.848-10.223 35.84-9.927 36.988-9.585 38.712-9.884 39.937-9.94L44.102-11.975C42.169-11.936 40.256-11.227 38.338-11.108 37.873-11.079 36.32-10.809 36.399-11.547 38.097-12.141 40.017-11.753 41.65-12.078 43.777-12.501 46.557-14.256 48.706-14.444 49.51-14.515 50.204-14.044 51.063-14.184 52.057-14.346 53.424-15.627 54.696-15.741 55.775-15.837 56.646-15.057 57.173-15.112 57.529-15.15 61.031-17.694 62.517-17.115 62.726-18.112 62.39-17.8 61.966-18.07 61.409-18.425 58.457-20.304 58.247-20.364 57.127-20.685 56.699-19.564 55.667-19.679L55.886-20.968 56.949-21.382C56.402-21.309 52.653-22.641 53.528-23.526 56.902-22.456 61.921-17.705 65.293-17.94 70.098-18.276 71.94-29.373 65.509-28.444 69.296-26.592 68.58-20.75 63.982-20.561 63.083-20.525 56.5-22.413 55.66-22.88 55.456-22.994 55.111-23.431 55.237-23.522L56.948-23.738 54.811-24.166C57.375-26.211 63.314-28.591 64.576-24.248L62.09-21.39C63.744-21.254 65.513-21.387 66.812-22.531 67.666-32.685 57.947-26.057 52.888-24.802L53.568-26.451C55.499-26.326 57.392-27.156 58.662-28.654L51.813-26.732C56.071-29.011 62.581-30.208 67.445-30.791 68.822-30.957 71.253-31.195 72.602-31.243 73.353-31.269 74.015-31.26 74.503-30.581L66.372-29.937 69.171-28.248C72.294-28.065 75.439-28.359 78.448-29.211 79.407-29.483 81.239-29.936 81.785-30.792 79.369-31.303 77.548-30.153 75.475-29.611 75.054-29.501 73.974-29.178 74.081-29.936 77.638-31.765 81.181-30.686 84.781-32.085 83.857-33.729 81.528-34.078 81.775-36.361 80.031-35.587 80.011-36.981 79.003-38.06 76.138-36.972 76.914-32.643 74.078-32.511 74.261-33.157 75.035-33.421 75.298-34.069 76.204-36.309 73.649-34.029 73.337-33.888 70.09-32.432 66.809-33.086 63.602-32.492 62.182-32.228 58.743-30.227 56.613-29.636 55.365-29.289 53.658-28.839 52.4-28.708 51.927-28.659 50.857-28.323 50.957-29.081 53.797-29.555 57.075-30.15 59.741-31.217 63.01-32.525 61.739-32.556 65.278-32.917 67.294-33.123 70.644-33.606 72.491-34.305 75.89-35.592 79.624-39.731 82.641-41.912 80.645-41.08 78.21-41.517 76.329-40.734 76.076-40.628 73.139-39.059 72.983-38.946 71.93-38.187 72.363-37.364 70.224-36.356 70.866-37.026 71.67-37.928 71.51-38.92M70.224-36.356C67.128-33.13 61.702-34.558 57.995-33.387 55.662-32.65 54.584-29.859 51.814-29.945 52.27-30.83 53.814-30.813 54.412-31.834 54.946-32.746 54.624-33.617 54.907-34.122 55.046-34.369 56.651-34.943 56.946-35.721L56.092-36.566C57.283-37.798 58.722-40.645 60.373-40.421L57.378-37.216C59.548-37.763 61.251-41.746 63.801-40.403 63.934-40.333 65.72-38.26 65.756-38.107 65.926-37.383 65.167-36.583 64.645-36.151L60.806-34.65C62.927-34.312 65.529-34.494 67.226-35.929L68.175-35.569C68.776-35.983 69.656-36.089 70.224-36.356M84.78-61.594C82.427-61.261 80-59.973 77.923-58.817 76.62-58.091 75.165-56.533 74.079-56.669L77.075-60.729C76.615-61.114 72.277-58.488 72.359-57.315L71.932-58.595C67.81-56.354 71.881-57.261 72.69-56.352 72.989-56.014 73.068-54.843 73.221-54.318 71.529-57.21 68.904-56.277 66.373-55.168L69.279-54.906C69.924-54.725 71.02-54.057 71.297-53.456 72.252-51.383 68.539-50.064 70.652-48.759 68.674-47.98 68.689-48.479 67.219-48.163 65.781-47.853 64.474-46.702 62.945-46.625L65.51-47.909 64.613-48.591 65.081-50.469C64.173-50.159 63.746-49.217 63.796-48.33 62.657-49.21 60.95-48.494 60.376-49.609 63.41-49.831 63.905-53.52 67.652-52.605L65.942-48.763C69.26-48.374 68.624-49.262 69.619-51.287 69.95-51.96 71.01-52.341 70.63-53.439 68.241-55.026 65.924-53.682 63.375-54.103 64.731-55.494 66.992-55.71 68.492-56.689 69.847-57.573 71.571-59.882 73.063-60.677 74.406-61.394 76.001-61.251 77.325-61.99L77.079-65.436C78.361-64.733 77.645-62.381 79.641-62.868 79.669-62.205 78.845-62.39 78.409-61.755 78.174-61.413 77.278-59.678 77.505-59.453 81.734-59.939 80.279-63.682 80.076-66.721 81.521-65.547 81.686-62.72 80.929-61.165 81.335-60.853 84.193-63.066 84.78-61.594M73.221-54.318 74.519-54.53C74.935-54.75 74.135-56.083 75.141-55.597 76.216-55.078 74.709-53.495 75.996-53.897 77.941-54.505 80.518-56.354 82.639-56.882 82.915-55.782 81.636-55.742 80.91-55.414 78.963-54.533 76.613-53.432 74.503-53.461 75.067-52.069 74.379-51.566 73.649-50.474 76.521-50.467 78.809-52.095 81.138-53.467L79.428-50.471C81.573-52.58 84.282-54.672 87.349-55.17L86.067-53.895C90.989-52.974 91.133-48.767 86.795-46.533 84.376-45.287 80.528-44.148 77.933-43.203L86.799-47.386C91.241-49.73 88.119-54.012 83.926-53.031 84.726-51.583 86.259-50.379 86.088-48.558 85.831-46.914 82.223-46.644 80.818-46.089 77.212-44.663 74.684-42.692 70.437-43.911L69.795-43.199C67.723-44.587 68.263-43.2 65.939-43.197 65.793-41.989 66.919-42.285 67.599-41.22 68.747-39.422 68.872-37.32 67.226-35.929 67.509-37.76 67.803-39.115 66.747-40.797L62.948-42.766C64.207-43.271 65.938-43.427 67.114-43.951 67.702-44.213 67.786-44.007 67.652-44.907L62.091-44.904C63.849-45.41 65.931-46.241 67.784-45.677 68.405-45.488 68.663-44.67 69.587-44.488 70.56-44.297 77.065-44.476 77.503-44.914 77.774-46.404 76.771-45.063 76.218-45.988L77.075-47.471C76.651-47.802 69.385-44.329 68.511-46.616 71.468-46.487 74.518-46.641 76.438-49.183L77.287-48.332 78.356-50.896C76.746-50.165 74.594-50.356 73.101-49.95 72.367-49.751 71.547-49.111 70.652-48.759L74.03-52.026C73.558-52.562 73.397-54.017 73.221-54.318M27.404-9.413C25.826-9.167 25.325-7.867 25.259-6.42 23.082-7.553 24.277-11.369 26.116-12.406L24.839-8.985C25.459-9.434 26.015-10.124 26.548-10.696L26.639-9.901C26.857-9.79 27.383-9.617 27.404-9.413M-106.175 16.88C-106.765 16.065-107.648 14.076-105.766 14.107L-104.875 17.715-105.76 18.593-103.627 17.958-104.003 19.848C-104.144 20.037-106.597 20.436-106.934 20.415-107.832 20.359-108.725 18.708-109.154 20.691L-107.926 23.055C-110.77 24.867-111.649 25.828-114.327 22.667L-110.049 22.665C-110.433 21.249-109.525 19.598-109.617 18.386L-107.48 18.815C-107.621 17.612-107.067 17.387-106.175 16.88M-111.124 4.279C-110.427 4.485-109.107 5.671-108.93 6.39L-110.045 8.118-107.916 7.881C-106.697 8.491-106.589 10.78-108.327 10.687-108.373 8.88-110.137 7.988-111.758 8.122L-111.946 6.781C-111.25 6.433-112.216 3.957-111.124 4.279M-57.185-46.643-54.813-44.91C-55.122-48.172-59.523-48.89-59.944-45.339ZM-70.756-60.299C-71.464-60.783-71.445-62.089-73.221-61.584-71.653-60.144-69.966-57.725-67.656-58.172-68.336-59.093-69.792-59.639-70.756-60.299M-86.895-37.453C-87.383-38.028-87.457-38.819-87.972-39.371-88.662-40.11-92.062-43.863-92.917-43.195L-85.002-32.939-83.995-34.066C-83.996-35.851-86.113-36.533-86.895-37.453M-95.478-45.131-94.634-45.333C-94.71-46.837-94.833-48.008-93.774-49.182-94.818-49.588-96.281-48.975-97.182-49.389-98.215-49.864-102.894-55.349-102.764-56.882-101.646-57.338-102.003-56.042-101.692-56.009-100.656-55.898-99.626-57.333-98.296-57.766-96.524-58.342-93.321-57.727-92.919-59.876-94.623-59.591-96.153-58.879-97.896-58.649-100.059-58.364-102.459-59.381-103.838-57.314L-104.26-58.593-105.549-56.892C-107.047-58.917-109.061-58.677-111.332-58.596-111.368-58.874-111.291-59.179-111.33-59.45-110.683-59.434-109.658-58.988-109.41-59.023-108.437-59.16-108.982-60.362-109.924-60.637-111.489-61.093-113.566-60.782-115.181-60.729L-111.327-60.305C-111.291-60.027-111.368-59.722-111.33-59.45-115.478-59.556-119.604-59.647-123.745-59.455L-122.037-60.302-126.522-60.304C-127.012-60.19-126.745-59.742-126.542-59.44-124.735-56.743-116.62-58.832-113.892-57.533-113.696-57.44-113.351-56.975-113.471-56.889L-118.172-56.671C-115.153-53.46-109.453-57.406-106.198-54.951-104.858-53.941-100.839-49.027-99.589-47.441-98.574-46.152-97.879-44.468-96.956-43.228-95.516-41.295-89.927-35.127-89.892-33.164-89.88-32.497-90.364-31.896-90.347-31.227L-87.348-31.648-87.781-30.802-85.213-30.8C-87.769-36.159-92.186-40.27-95.478-45.131M-70.756-26.41C-69.551-26.916-67.207-26.898-66.599-27.819L-64.674-34.025-65.937-34.218C-64.673-40.655-60.441-46.124-59.085-52.604L-58.239-51.328-57.068-53.677C-58.79-55.347-57.508-57.718-59.811-58.929-60.427-59.253-63.296-60.181-62.084-58.598L-64.655-59.018-60.082-57.174C-59.441-56.61-59.065-54.858-59.294-54.105-59.464-53.546-60.044-53.262-60.258-52.707-60.962-50.881-61.54-48.728-62.211-46.961-63.357-43.944-64.684-41.111-65.738-38.093-66.077-37.123-67.617-35.924-68.078-34.855L-65.942-33.366-67.656-33.787-67.452-32.939C-69.21-32.905-69.606-32.025-70.238-30.597-75.867-28.501-82.07-27.641-87.952-26.18L-88.636-26.943-78.361-29.509-90.348-27.379C-89.214-29.266-83.78-28.879-83.073-30.589-83.013-32.205-84.802-30.276-85.543-30.06-86.605-29.749-88.229-29.914-89.202-29.422-89.836-29.101-89.849-28.268-90.213-28.197-90.798-28.084-91.682-28.681-92.086-28.461-92.881-28.027-92.396-26.183-93.772-26.522L-90.351-33.551C-95.547-38.461-98.572-45.553-103.625-50.681-104.292-51.358-108.185-54.736-108.784-54.95-111.478-55.91-121.239-51.588-119.467-57.309-122.409-57.482-125.091-55.971-127.818-57.737-131.011-59.806-129.829-61.072-126.316-60.738L-126.667-61.007C-124.849-61.026-123.059-61.544-121.25-61.722-117.114-62.129-113.058-61.566-108.974-60.965-108.52-60.899-108.064-60.833-107.606-60.771-105.128-59.335-101.978-59.107-99.163-59.487-97.306-59.737-93.025-62.143-91.593-60.532-91.115-59.994-91.38-59.825-91.686-59.312-93.263-56.669-97.463-57.88-99.794-56.237L-100.121-53.988-95.643-50.069-93.572-51.319C-91.663-50.793-89.914-49.22-90.351-47.048L-91.632-47.052-91.206-48.328-93.342-47.693-79.435-30.352C-77.838-31.041-75.87-30.51-74.392-30.897-74.035-30.99-70.127-32.741-69.998-32.946-69.778-33.299-70.123-33.958-69.961-34.229-67.618-38.135-64.981-42.872-63.292-47.182-62.783-48.48-60.769-54.4-60.773-55.404-60.774-55.896-60.806-56.345-61.222-56.682-63.436-58.9-75.026-53.948-76.874-58.188-77.109-58.728-76.628-59.372-76.665-59.425-76.67-59.433-76.689-59.443-76.705-59.453-76.504-59.592-76.303-59.729-76.102-59.868-75.925-59.99-75.746-60.115-75.567-60.241-75.482-60.256-75.408-60.276-75.362-60.31-75.368-60.333-75.376-60.352-75.382-60.374-75.087-60.591-74.801-60.821-74.55-61.082-74.325-61.315-74.166-61.573-74.106-61.856-71.908-61.956-69.911-62.997-67.714-63.171-65.992-63.308-64.287-63.088-62.59-62.809-62.592-62.709-62.571-62.591-62.516-62.449-60.751-62.225-58.322-61.168-57.482-59.54-57.291-59.169-57.479-58.316-57.357-58.19-57.143-57.97-54.919-58.209-54.346-58.349L-52.771-59.16C-52.377-59.15-51.983-59.151-51.594-59.15-49.312-59.149-46.983-59.245-44.729-58.824-44.36-58.755-43.976-58.667-43.598-58.553-43.857-58.583-44.091-58.598-44.266-58.581-45.173-58.495-46.03-57.837-46.942-57.757-49.259-57.553-51.618-58.273-53.949-56.879-54.036-56.037-53.115-56.631-52.668-56.668-49.385-56.937-46.102-57.455-42.821-57.528-44.853-56.8-47.443-56.14-49.555-55.701-50.836-55.434-52.28-55.958-53.346-55.194-54.444-54.407-57.163-49.79-56.986-48.603-54.337-47.418-52.21-44.47-54.797-42.117L-55.886-42.339C-56.335-43.067-55.048-44.727-56.944-45.567-57.561-45.725-58.275-45.11-58.683-44.714-61.313-42.164-63.153-33.309-64.634-29.704-66.825-24.37-69.326-26.558-72.349-24.152-73.468-23.262-74.185-21.298-75.665-20.587-76.747-20.76-77.706-21.151-78.787-21.388L-80.498-22.666C-76.526-21.896-73.979-25.055-70.756-26.41M29.978-27.803C30.615-28.135 33.335-29.627 33.753-29.426 33.856-29.376 33.904-28.114 35.539-28.661 34.742-30.304 35.65-29.68 35.929-30.271 36.458-31.391 36.043-32.256 37.902-32.932 38.301-33.168 37.59-33.756 37.459-33.788 36.01-34.144 29.105-30.352 29.978-27.803M34.949-27.427C38.674-27.125 47.207-29.368 46.595-34.319 46.249-37.117 43.61-37.917 41.209-36.895 40.596-36.634 40.566-36.785 40.677-35.93 42.797-36.541 45.027-34.187 44.224-32.209 43.788-31.136 40.099-28.23 39.18-28.23H32.971C32.925-27.604 34.533-27.461 34.949-27.427M40.887-29.945C44.708-31.593 43.077-36.857 38.541-34.64 38.618-33.812 40.026-34.103 40.471-33.371 41.111-32.319 39.685-29.426 40.887-29.945M16.271-24.389C17.75-24.237 18.12-23.149 17.987-21.813 23.041-22.5 18.948-28.899 16.271-24.389M7.275-23.526C5.931-22.525 6.445-20.521 5.512-19.09 4.81-18.013 3.307-17.713 2.998-16.26 5.792-17.454 7.918-20.389 7.275-23.526M6.421-25.883C4.99-24.477 5.208-22.746 4.682-20.963L3.408-21.181 2.573-19.25 3.852-19.674 4.494-18.823C5.359-20.376 5.601-22.141 6.169-23.796 6.207-23.906 6.703-23.805 6.881-24.573 6.924-24.762 7.091-26.538 6.421-25.883M5.47-27.548C5.205-27.412 4.723-27.768 4.497-27.411 4.017-26.649 3.809-24.328 3.416-23.317 3.773-21.505 4.361-24.568 4.426-24.674 4.597-24.951 5.513-26.137 5.8-26.514 6.017-26.798 6.486-26.906 6.838-26.967 6.23-29.543 5.578-27.603 5.47-27.548M3.422-29.086 2.126-26.688 2.998-25.883 .861-21.388C3.396-22.909 3.549-26.449 3.422-29.086M-1.711-14.549C.524-14.854 2.463-16.43 3.426-18.39L1.748-17.717ZM-1.619-4.799C-1.723-4.851-1.661-5.769-2.324-5.6L-5.142-4.922C-2.443-4.85-.462-4.368-1.712-1.291L2.377-2.565 2.376-3.855C1.306-5.867-1.228-4.606-1.619-4.799M-4.927 .421C-1.854-1.044-1.225-4.499-5.566-3.849-5.096-3.065-4.513-2.283-4.476-1.312-4.448-.553-5.613-.16-4.927 .421M-10.276 5.551-6.853 4.704-8.562 6.409C-7.772 6.678-6.795 5.948-6.24 5.973-5.983 5.985-6.04 6.746-5.708 6.833-3.329 7.451-1.843 5.629-.014 4.958 .49 4.773 1.184 5.243 2.112 4.919 3.455 4.448 5.88 1.944 4.941 .419 4.011-.571 2.913-.421 2.17 .684L2.923 2.917C1.634 4.183-.832 5.412-1.731 3.202-.838 .931 3.921-2.349 6.005-.229 6.701 .672 6.652 2.351 6.023 3.232L3 5.124C6.645 5.774 11.539-.767 6.42-1.961 5.207-2.244-2.488-.396-3.737 .326-5 1.057-5.103 2.435-5.689 2.865-7.105 3.906-10.177 2.775-10.276 5.551M-7.198 .397C-7.84 .474-8.474 .331-9.173 .045L-9.632-1.713-11.13-.21-9.851 1.273C-11.7 1.531-13.217 2.112-14.13 3.841L-8.989 2.138-9.423 2.986C-9.029 3.265-6.064 2.606-5.995 1.711L-8.561 .853ZM-11.988 8.544C-7.356 9.475-11.741 11.767-11.56 11.966-10.492 12.417-9.597 11.967-8.637 11.47L-8.75 8.095C-9.264 7.359-11.796 7.45-11.988 8.544M-4.772 10.417C-5.165 9.01-5.912 7.025-7.707 7.271-6.204 9.237-7.162 10.757-8.564 12.394-8.045 12.787-4.928 11.24-4.772 10.417M-3.853 9.648-1.715 9.4-3.425 8.126 2.139 5.988C-.318 5.551-2.273 6.996-4.522 7.675ZM-22.694-2.147C-22.158-1.664-20.005-3.954-20.119-4.705L-19.485-3.855C-15.175-8.217-22.393-4.58-22.694-2.147M-12.846-5.132C-13.414-5.664-17.522-1.114-17.984-.436-15.415-.487-13.752-3.055-12.846-5.132M-13.304-7.947C-14.293-7.16-15.343-6.523-16.493-5.996-16.929-5.455-15.657-4.819-15.038-5.194-14.807-5.94-14.025-7.371-13.276-6.635L-13.918-5.992C-14.332-5.018-13.351-5.635-13.044-5.976-12.107-7.017-11.494-8.653-10.705-9.836-12.283-10.167-12.339-8.715-13.304-7.947M-9.424-17.111C-10.683-16.953-11.293-14.482-11.684-14.208-11.967-14.01-12.662-14.21-12.787-14.082-13.07-13.794-12.721-11.774-12.841-11.124ZM-30.399 3.841C-28.016 3.806-24.481 3.981-22.694 2.138ZM-40.03 .418C-40.741 .885-39.948 1.356-39.54 1.639-38.056 2.669-35.721 3.54-34.272 4.503-32.479 5.694-31.095 8.712-28.263 7.482L-31.686 5.556H-25.477L-22.268 4.277C-24.554 4.182-26.446 5.275-28.783 5.03-33.344 4.553-35.85 1.56-40.03 .418M-38.563 4.512-35.54 5.551C-37.929 3.585-41.041 1.866-44.101 1.283ZM-49.36-5.232-51.381-5.559C-51.015-4.963-49.538-4.254-48.892-3.988-47.745-3.516-46.215-2.992-44.962-3.002ZM-56.231-6.067C-62.303-8.825-67.525-10.703-74.296-11.119-80.413-11.495-87.219-11.109-92.909-8.771-92.91-7.833-87.979-8.077-87.143-8.135-85.38-8.257-83.38-8.894-81.588-9.003-71.545-9.612-60.891-6.176-51.385-3.43ZM-91.847-12.834C-92.706-12.739-95.571-12.074-95.913-11.335L-93.643-9.908C-90.212-11.357-86.51-12.095-82.81-12.367-82.131-12.417-81.475-11.996-80.76-12.02-80.375-12.033-78.368-12.248-78.359-12.834-82.659-12.489-87.634-13.302-91.847-12.834M-73.49-5.508-78.785-5.56-75.573-4.711-65.515-3.858ZM-47.531-.436-56.289-3.871C-59.951-5.156-63.819-5.246-67.652-5.559L-58.474-3.4C-54.901-2.135-51.313-.911-47.531-.436M-95.059-2.138-94.425-1.288-82.016-2.16C-70.658-2.747-59.879 .856-48.816 2.557-48.754 1.942-49.823 1.865-50.303 1.699-64.025-3.048-80.822-5.553-95.059-2.138M-97.628-16.26C-95.794-16.736-92.93-15.872-91.633-17.534-93.378-17.412-96.4-17.682-97.628-16.26M-122.889 12.614C-120.027 12.929-117.238 14.211-114.33 13.248-114.228 12.505-115.304 12.845-115.821 12.826-117.032 12.781-118.256 12.862-119.463 12.822L-115.612 12.394C-117.189 10.674-121.073 11.476-122.889 12.614M-132.259-.166-137.021 2.13C-134.502 2.195-131.552 .891-129.742-.855ZM-140.443 9.832C-138.568 8.605-137.366 6.137-134.881 5.979L-135.951 4.725C-136.616 5.151-140.938 9.301-140.443 9.832M-139.293 5.231C-140.694 6.541-142.385 8.283-143.444 9.828-142.86 10.36-138.385 5.415-137.878 4.704-139.014 4.462-138.813 4.782-139.293 5.231M-131.027 6.833-131.233 5.99-136.59 8.544C-133.999 9.717-133.577 6.901-131.027 6.833M-129.048 60.789C-128.236 60.623-127.385 59.973-126.319 60.3L-127.602 61.154-126.532 62.443C-122.441 59.765-129.926 58.827-130.168 60.09-130.341 60.991-129.825 60.948-129.048 60.789M-7.709 21.809-7.703 23.09C-5.866 22.14-2.513 23.294-.976 21.694 .013 20.663-.741 19.227-2.135 19.242-2.505 22.312-5.34 21.853-7.709 21.809M.029 19.427C.554 20.156 .264 21.224 1.07 21.799L2.997 20.303C3.341 18.945-1.039 17.578-2.139 17.962-1.906 18.806-.562 18.606 .029 19.427M2.346 16.241C3.919 15.762 4.957 13.529 3.878 12.159L1.715 11.973C1.647 12.796 2.113 13.519 2.154 14.326 2.184 14.929 1.108 16.617 2.346 16.241M14.128 13.038 9.849 12.398C12.047 12.487 14.287 12.276 16.486 12.398 16.677 12.409 19.264 13.437 19.273 12.612 16.184 10.911 12.648 11.725 9.255 11.517L8.784 14.543C10.579 13.739 12.747 14.671 14.128 13.038M17.023 8.019C17.291 7.745 17.743 6.303 16.914 5.992 15.735 7.4 13.046 7.183 12.848 9.402 13.533 9.061 16.827 8.22 17.023 8.019M23.141 4.028C24.174 6.042 24.963 8.645 23.965 10.806 23.748 11.276 22.767 10.84 23.125 11.968 29.822 12.68 25.416 2.045 22.04 2.14L19.272 3.85C19.945 5.115 22.1 3.309 23.141 4.028M15.415-11.555 14.133-11.339C15.523-10.121 16.223-9.604 15.417-7.705 16.456-6.627 19.531-13.106 14.763-13.288 13.394-13.34 10.225-12.339 9.421-11.128 11.298-11.501 14.042-13.669 15.415-11.555M34.26-33.79C35.503-34.214 36.29-35.003 36.403-36.355L37.252-36.352 37.46-34.65C39.664-37.005 44.917-40.275 47.046-36.088 49.888-30.498 41.608-27.145 37.358-26.631 34.311-26.263 33.21-27.727 31.111-27.654 29.268-27.591 28.48-26.379 27.064-25.792 26.348-25.496 24.138-25.296 24.031-25.185 23.948-25.099 23.878-23.657 23.499-22.936 21.81-19.713 14.626-16.903 11.146-16.44 10.661-16.375 9.408-16.344 9.422-17.107L11.997-17.318 11.564-18.389C12.059-18.405 14.361-18.983 14.065-19.816 13.074-22.3 11.817-21.547 11.556-19.249 10.409-19.018 10.932-19.514 10.493-20.103L7.284-17.111C7.429-19.017 9.714-20.73 9.208-22.669 7.586-20.583 6.346-17.155 4.717-15.179 3.621-13.849 .243-12.638 .004-12.187-.526-11.184 1.51-11.748 1.283-11.339 .123-10.661-.563-10.051-.424-8.558L4.5-9.405C4.653-11.974 5.906-12.153 7.706-13.478L1.715-11.554 4.503-14.112C5.742-14.504 4.147-12.746 5.345-13.268 6.51-13.776 8.096-15.076 9.208-15.821 10.241-13.522 10.55-15.093 12.246-15.399 12.84-15.506 13.513-15.09 13.936-15.146 14.665-15.243 15.118-16.746 16.053-16.687L14.561-14.12 16.244-14.143C15.949-16.906 19.299-17.234 20.977-18.822 20.323-16.378 16.706-16.944 16.747-13.88 16.749-13.724 18.276-13.034 18.659-11.548 18.971-10.343 18.318-9.915 18.624-8.987 20.474-11.279 22.938-13.432 25.692-14.541L18.128-8.415C16.496-6.028 13.345-3.832 10.707-3.002L11.559-3.849 10.279-4.277C13.191-3.782 15.561-8.027 13.719-10.057 10.656-13.431 5.931-6.434 3.655-4.728L3.856-2.998 5.57-3.422 5.359-2.565C7.404-3.007 9.39-3.209 10.06-.869 11.195-2.187 12.368-1.059 13.712-1.458L22.261-5.991 22.692-4.283C19.451-4.536 16.986-1.817 13.824-.952 12.857-.687 11.494-1.128 10.695-.655 10.063-.281 9.829 1.522 9.358 2.285 8.049 4.405 5.331 5.473 3 5.992L3.429 7.689 1.715 8.545 3.67 8.166C4.737 9.612 8.664 7.99 11.133 8.122 11.109 8.131 11.281 8.422 10.848 8.545 9.873 8.823 8.251 8.601 7.281 9.189 8.613 10.459 11.155 9.847 12.414 8.757 12.615 7.757 11.752 8.155 11.133 8.122 12.166 7.724 17.054 5.585 17.979 4.897 18.658 4.392 19.729 2.777 20.553 2.138 16.065 3.919 11.376 6.785 6.535 7.59 5.919 7.692 3.141 8.015 3.636 6.839L5.993 5.988 4.285 6.844C4.162 7.564 5.347 7.324 5.752 7.241 7.82 6.818 12.703 5.095 14.712 4.211 16.888 3.254 18.677 1.543 20.978 .846 21.095 .166 20.382 .392 19.921 .427 15.838 .731 12.477 3.878 9.101 5.023 8.726 5.15 7.194 5.499 7.282 4.705 10.587 3.695 13.176 1.722 16.607 .545 18.25-.018 20.72 .07 21.838-1.283 18.549-.879 15.11-.517 12.016 .664 11.265 .951 10.679 1.106 11.559 .208 12.925-.608 22.042-2.284 22.692-1.713 22.884-.707 21.137-.229 22.277 .627 22.963 1.142 24.821 1.287 25.861 1.752 26.786 2.165 27.381 2.994 28.162 3.302 30.504 4.227 33.957 3.881 36.394 3.419 36.604 4.704 36.079 4.105 35.353 4.286 34.338 4.538 33.509 4.808 32.547 4.273 32.308 5.294 32.717 4.966 33.102 5.227 33.582 5.553 35.205 6.781 35.332 6.835 36.035 7.136 36.203 6.274 35.965 5.992 35.77 5.76 34.356 5.874 34.686 4.702 35.785 4.446 36.412 6.275 37.097 6.371 37.479 6.425 39.01 5.12 40.25 5.979 39.411 4.42 39.655 2.831 41.532 2.554 41.289-.718 37.437 3.9 36.825 3.413 37.047 .967 36.895 2.241 38.054 1.457 39.328 .595 42.457-1.332 43.396 .955 44.011 2.451 42.736 6.299 41.965 7.91 42.572 8.645 43.012 7.675 43.28 7.085 44.473 4.455 45.711-.109 41.967-1.097 40.22-1.558 38.942 .054 37.34 .724 33.994 2.125 30.995 2.655 27.404 1.699L27.402 .426C29.598 .037 32.69-.231 34.71-1.063 35.619-1.438 35.505-2.006 36.072-2.267 39.799-3.99 44.026-2.978 47.955-2.996 48.423-1.351 45.801-2.503 45.391-2.14 45.537-.018 48.559-.831 50.522-.204 51.167 .002 52.54 .277 52.237 1.277 50.347 .488 48.866-.365 46.675-.002 46.883 2.795 51.102 .602 51.816 3.199L47.105 2.135 46.675 4.698C48.527 4.598 51.257 2.825 52.239 5.124 50.767 4.543 46.812 4.389 46.006 5.984 45.603 6.781 46.121 7.462 46.021 8.178 45.954 8.666 45.173 9.113 45.39 9.83L48.603 8.98C49.218 10.978 45.859 10.002 44.42 10.362 44.075 10.448 42.21 11.502 41.965 11.966L47.957 11.547C47.794 12.202 46.96 12.601 46.365 12.73 45.466 12.927 41.418 12.641 40.557 12.402 40.111 12.279 40.07 11.444 39.574 11.166 38.215 10.405 36.848 10.659 35.968 8.977 37.923 10.055 40.754 11.267 42.901 10.548 45.798 9.579 44.491 7.929 45.055 5.863 45.357 4.756 46.485 3.53 46.484 2.348 46.48-2.399 40.987-3.263 37.355-1.839 36.87-1.649 36.889-1.025 36.493-.891 34.939-.365 32.867-.28 31.261 .429 31.15 1.149 32.27 .865 32.764 .862 34.778 .853 36.796 .25 38.649-.534 40.54-1.334 40.872-3.339 43.659-1.055 46.872 1.577 44.37 5.644 43.267 8.781 42.013 9.623 37.046 7.897 35.544 7.266 35.406 7.444 35.823 8.7 35.968 8.977 33.266 7.487 31.944 4.583 28.692 4.274 27.165 5.926 35.551 10.467 36.786 11.371 37.444 11.853 38.729 12.323 38.535 13.251 37.598 13.501 37.373 12.407 36.808 12.164 36.277 11.936 35.585 12.452 35.543 12.402 35.466 12.311 35.75 11.595 35.263 11.085 35.034 10.844 29.758 7.435 29.55 7.694L29.116 10.685 33.397 11.539 29.302 11.255C28.067 13.486 25.063 14.502 22.595 14.093 22.291 14.042 22.292 13.685 22.266 13.681 22.826 13.864 26.853 12.998 27.387 12.594 29.074 11.32 28.773 6.581 27.956 4.807 27.709 4.271 25.099 1.541 24.409 2.346 30.795 9.913 26.103 15.798 17.558 10.472 18.946 10.23 19.158 10.374 19.873 9.095L22.266 9.4 20.753 6.394C19.694 6.211 18.66 7.791 17.58 8.359 14.434 10.013 12.511 9.867 9.198 10.259 8.409 10.352 8.51 10.126 8.564 11.115H14.773C17.593 11.115 18.529 11.654 21.303 12.738 21.886 12.966 22.202 13.66 22.266 13.681 20.71 13.439 17.662 13.246 16.121 13.279 15.516 13.292 14.809 13.768 14.131 13.686L14.552 14.33 19.695 14.96C16.583 15.447 12.809 14.163 9.837 14.745 8.161 15.074 7.015 16.167 5.373 16.984 6.169 16.486 7.537 14.754 7.68 13.87 8.162 10.899 6.731 11.497 6.415 9.415L3.623 10.261 3.2 9.379-5.564 13.042-3.256 12.796-2.792 13.684C-1.539 12.997 2.659 10.538 3.864 10.858 6.132 11.46 5.565 13.976 4.627 15.523 3.884 16.75 2.48 16.7 1.225 16.842 .642 16.907 .285 16.124 .43 17.528 1.582 17.263 4.234 17.396 5.138 17.103 4.289 17.498 3.563 17.928 2.57 17.963 3.408 19.878 4.744 18.122 5.686 18.072 7.037 18.001 9.454 18.68 10.923 18.809 12.314 18.932 13.876 18.642 15.208 18.813 15.798 18.888 16.551 19.131 15.841 19.666L5.569 18.818 9.42 20.52 3.856 19.673 5.993 20.947C2.765 20.367 4.515 20.635 3.456 22.042 1.116 25.149-7.089 22.037-9.423 24.598-10.119 25.362-10.29 27.823-12.201 25.23L-15.2 28.641-16.16 23.192C-16.541 22.694-16.8 19.716-17.763 20.101-19.237 20.689-16.615 23.363-16.373 24.685-16.06 26.39-16.127 28.583-17.348 29.929L-18.408 28.224C-18.294 29.286-18.6 30.646-19.9 30.785-21.813 29.26-20.512 26.543-21.069 24.675-21.289 23.936-23.311 22.35-23.993 21.592-24.331 21.218-24.269 20.409-24.526 20.188-24.779 19.971-25.498 20.192-25.627 20.059-25.857 19.822-25.586 18.48-25.776 17.831-26.079 16.795-27.18 16.195-26.974 14.966-25.555 14.693-24.065 16.559-23.987 17.768-23.949 18.365-24.543 19.467-24.404 19.651-24.359 19.711-23.39 19.852-22.973 20.148-22.267 20.65-20.475 22.094-19.915 22.667-19.107 23.494-18.854 24.68-17.988 25.226L-20.117 20.302-19.048 18.818-18.753 19.461-17.986 19.672-17.982 17.956C-15.386 17.85-15.074 20.563-14.142 22.032-13.862 22.473-12.708 24.126-11.992 23.943-10.883 21.084-16.082 19.341-14.797 17.507-13.89 16.213-11.929 18.357-10.698 17.96-11.718 19.534-9.368 19.699-10.275 21.376-9.505 21.531-8.513 21.277-8.552 20.31-9.967 19.883-8.346 18.624-10.519 17.96L-10.272 16.675C-8.964 18.028-8.028 17.117-6.425 17.107L-7.705 17.954-3.425 17.526-6.42 15.397C-4.729 14.186-4.743 16.076-4.074 15.816L-3 14.112C-3.689 13.237-10.276 16.503-11.987 15.817-12.659 15.303-11.996 15.037-11.356 14.963-9.483 14.745-7.284 15.317-5.995 13.258L-12.121 14.101-16.008 10.68-19.695 12.614C-17.488 12.64-18.286 18.583-19.69 17.529-20.414 15.724-20.67 15.476-19.709 13.701-21.471 13.351-22.24 10.456-21.407 8.979L-23.549 8.98C-23.067 11.041-21.956 11.748-24.616 12.833L-26.117 8.979C-24.736 9.492-23.574 8.064-22.521 8.113-21.043 8.181-18.058 10.902-16.699 8.553-17.63 8.596-19.874 9.473-19.694 7.695-18.395 8.059-17.613 8.283-16.26 7.922-15.378 7.687-9.733 5.091-10.709 3.845-12.315 5.242-14.196 4.828-15.87 5.314-18.282 6.015-20.415 6.995-23.016 7.588-23.826 7.773-25.081 7.497-25.6 7.793-25.913 7.971-26.452 9.688-27.832 9.411-28.092 9.753-25.436 13.574-28.056 14.1-29.064 14.303-28.591 13.629-28.67 13.029-28.792 12.114-28.669 11.164-29.177 10.318-31.67 10.365-34.12 10.055-36.392 8.977-36.471 10.865-35.696 13.579-38.288 13.713L-39.178 12.405-40.678 13.263C-39.887 14.798-38.574 16.043-38.968 17.956-39.888 18.9-41.822 15.248-41.912 14.652-42.038 13.814-40.979 12.698-40.862 11.569-40.714 10.136-41.709 9.045-40.25 7.699L-43.247 7.271C-41.582 9.423-41.904 11.848-44.097 13.467-42.154 14.92-41.748 16.897-41.965 19.239-43.934 19.35-44.292 16.152-45.323 14.673L-44.105 13.038C-46.005 12.625-43.859 10.738-44.744 9.407-45.524 10.14-45.399 11.274-45.72 12.28-45.851 12.692-46.506 13.093-46.587 13.541-46.761 14.498-43.974 17.721-45.397 19.668L-46.67 19.671-48.179 13.046-47.07 6.864-45.777 7.089-44.965 8.546-44.707 6.82-61.229 3.847C-61.184 4.834-60.385 5.356-60.132 6.378-59.82 7.64-59.978 12.764-61.867 12.396-62.797 12.215-62.243 11.19-62.226 10.784-62.094 7.731-61.098 3.806-65.081 3.417-63.713 6.519-61.263 10.95-65.941 12.394-65.458 11.494-65.436 10.633-65.507 9.632-65.548 9.064-66.895 1.706-68.081 2.992-67.27 6.21-65.537 11.104-69.574 12.824L-69.469 5.872C-69.747 5.167-69.926 3.938-70.44 3.421-71.127 2.731-73.241 2.16-72.36 3.622-71.878 4.421-70.885 5.244-70.721 6.305-70.593 7.131-71.005 7.694-70.996 8.333-70.964 10.617-70.01 12.327-73.647 12.396-73.767 11.386-72.59 10.953-72.482 9.997-72.437 9.597-72.722 6.336-72.817 5.795-73.108 4.141-74.278 2.127-76.218 2.566-74.62 4.452-72.907 9.771-76.644 9.83-76.942 9.527-75.803 1.981-79.213 2.564-78.416 4.575-77.152 4.892-77.522 7.446-77.653 8.355-80.085 11.164-80.716 11.104-82.049 10.979-80.323 9.471-80.184 9.079-79.134 6.122-79.796 2.223-83.497 2.566-83.685 2.702-81.397 5.623-81.349 6.667-81.32 7.289-82.619 9.629-83.265 9.39-84.995 8.529-84.514 6.916-85.111 5.671-85.859 4.112-87.56 2.889-86.92 1.28-84.027 2.999-81.853 1.393-78.986 1.26-76.956 1.166-74.201 2.129-72.158 2.15-71.305 2.159-71.469 2.087-71.508 1.281-73.36 1.611-74.613 .585-76.409 .401-83.104-.285-90.485 1.175-97.199 .846-95.61-.604-97.422-.976-96.769-2.574-94.985-1.705-95.763-2.776-94.78-3.349-93.141-4.303-80.049-6.448-77.715-6.456-75.912-6.463-73.33-5.907-71.512-5.564-71.307-6.871-71.828-6.265-72.588-6.4-79.956-7.71-86.835-6.219-94.2-5.994L-93.356-7.919-94.601-8.151C-94.027-10.556-97.339-10.297-96.711-12.531-96.102-14.693-88.333-13.773-86.301-14.562L-74.934-13.266C-75.068-14.055-75.816-13.982-76.375-14.174-80.733-15.675-94.004-17.276-97.349-13.716-97.79-13.248-97.449-12.492-97.873-12.379L-99.767-12.409-99.553-15.392C-101.137-15.145-101.38-12.569-101.524-12.449-101.706-12.296-103.319-12.459-104.079-12.22-104.482-12.093-109.188-10.034-109.756-9.75-110.575-9.34-113.64-6.009-114.895-5.281-115.858-4.722-117.47-4.283-118.612-4.279-118.971-2.539-114.858-3.612-115.155-4.674L-114.335-4.705-113.685-3.434C-112.696-4.93-111.819-7.317-109.619-7.27L-110.917-5.354C-110.101-5.384-106.525-1.635-108.547-1.723-109.143-1.749-112.899-6.554-112.415-3.413L-110.472-2.562C-111.49 .558-112.408-2.453-112.914-2.58-113.765-2.792-115.091-2.428-116.038-2.568L-114.331-1.067-116.036 .232C-116.007 1.501-114.739 1.931-114.065 2.741-113.696 3.185-114.239 4.214-112.614 3.847-112.156 4.23-114.266 7.011-114.723 4.465L-116.039 4.697-115.187 2.571C-116.894 2.392-118.094 .81-118.182-.858-117.336-.879-116.656-.518-116.895-1.711L-118.605-2.145C-119.373 .034-118.57 1.499-117.711 3.501-117.591 3.782-117.109 3.86-116.816 4.456-116.62 4.855-116.867 5.832-116.692 6.008-116.502 6.201-112.786 7.481-111.758 8.122-111.517 8.271-110.813 8.666-110.904 8.973-112.572 9.175-117.32 6.976-117.75 9.402-115.831 9.59-113.435 8.921-111.564 9.425-110.479 9.717-110.03 10.84-108.76 10.693-108.324 12.263-110.684 11.341-110.898 12.393L-107.52 13.296-107.478 15.394C-109.33 15.933-108.878 14.307-110.063 14.715-112.546 15.569-111.978 16.635-113.055 17.732-113.617 18.305-115.099 18.479-115.603 19.455-113.451 22.064-113.24 17.709-110.898 17.955L-111.329 16.678C-110.343 16.547-109.681 17.543-109.617 18.386-111.948 19.465-109.939 21.853-114.316 22.047-115.887 22.116-116.986 21.181-118.432 20.989-122.874 20.397-127.348 21.401-131.631 22.272-136.068 23.175-140.9 29.147-141.324 33.544-141.968 40.218-137.042 44.311-132.273 48.071-128.692 50.893-122.004 54.252-119.456 57.628-117.94 59.634-117.395 61.205-118.171 63.7-115.974 64.097-111.082 67.216-110.025 69.045-108.661 71.405-108.406 76.937-112.544 75.618-114.524 73.725-112.425 70.95-112.669 70.01-113.062 68.495-116.104 67.265-116.93 66.49-117.36 66.087-116.853 65.465-116.899 65.439-117.018 65.37-119.495 65.08-119.63 65.105-120.133 65.198-121.449 66.731-122.772 67.045-125.182 67.616-126.399 68.227-128.346 68.745-129.922 69.164-131.829 68.692-133.179 69.016-135.094 69.475-136.986 71.358-139.345 70.984-139.886 70.898-140.273 70.39-140.74 70.276-140.894 70.239-143.357 70.807-142.167 69.486-141.033 68.229-138.179 67.036-136.919 65.865-135.91 64.928-132.125 58.147-132.499 57.304-133.076 56.725-133.625 56.126-134.309 55.664-139.356 52.254-145.463 50.554-150.813 47.771-158.808 43.612-163.949 33.538-163.137 24.591-162.185 14.096-158.417 4.523-150.741-2.801-150.112-3.401-146.276-6.624-145.794-6.844-145.608-6.928-145.091-6.952-145.159-6.635L-146.868-4.92C-146.089-4.042-145.136-6.28-144.516-6.316-144.091-6.341-143.588-5.5-143.007-5.755-142.19-6.113-140.728-8.606-139.165-8.566-138.965-10.759-142.203-7.144-143.293-6.969-143.566-6.925-145.266-7.073-145.154-7.697-144.183-8.426-142.89-8.21-142.009-8.58-140.483-9.222-140.152-10.515-138.071-10.219L-137.454-11.979-138.741-10.916C-138.773-11.654-138.485-12.233-138.069-12.812-136.316-15.255-126.536-20.883-123.616-21.482-122.696-21.671-122.074-21.38-121.178-21.392L-121.606-22.668C-116.406-23.404-111.24-24.901-105.973-25.233-101.13-25.537-95.482-24.025-91.416-26.945L-91.118-24.907C-86.62-22.352-83.867-26.402-79.646-26.517L-82.209-24.804C-82.288-24.049-80.752-24.345-80.292-24.386-79.49-24.457-78.736-24.796-77.929-24.813L-78.355-25.651-73.225-27.375C-72.297-26.527-75.543-25.879-75.909-25.659-76.359-25.388-76.499-24.615-77.531-24.213-79.069-23.613-81.001-23.489-82.644-23.525L-82.641-22.251C-81.34-22.034-80.077-21.67-78.787-21.388-71.963-18.598-65.278-14.653-58.53-11.469-57.301-10.889-55.595-10.818-54.604-10.224-53.838-9.765-54.964-9.104-51.975-8.135-44.932-5.85-39.72-4.405-31.479-5.143-28.817-5.381-24.182-6.498-24.404-9.843-22.656-10.182-24.287-8.595-23.934-8.175L-23.125-7.708-25.691-5.996-21.405-7.709-21.841-8.982C-20.506-9.877-18.539-8.893-17.578-9.201-16.312-9.608-15.536-11.385-14.56-12.195-15.376-12.837-16.44-10.559-17.124-12.2-17.433-12.941-16.43-12.777-16.293-13.148-15.731-14.674-15.579-16.435-14.981-17.965-13.251-17.162-15.824-14.669-15.413-13.264-13.981-11.611-13.773-20.65-11.992-19.038L-13.698-14.117C-10.968-15.317-10.256-19.104-9.846-21.818-7.697-22.121-10.426-18.588-9.846-17.969-7.617-18.239-7.793-19.535-7.191-21.083-6.983-21.618-6.371-22.415-6.413-21.17L-10.705-11.128C-10.29-10.803-7.494-12.513-6.851-12.834L-7.708-11.128C-6.863-11.208-5.684-10.584-5.336-9.828-4.674-8.39-6.655-8.211-5.355-7.285-2.231-8.896-3.063-13.21-6.851-12.834-6.631-12.944-6.645-13.778-5.396-13.698-2.831-13.534-1.776-9.9-2.97-7.888-3.777-6.528-6.019-6.441-7.247-5.745-9.776-4.312-12.312-2.281-14.322-.853-15.713 .135-16.73 .7-18.409-.003V1.277C-18.195 1.532-13.72-.044-13.026-.417-11.858-1.045-10.472-2.259-9.659-3.008-7.353-5.132-3.165-6.432-.001-6.422L-.431-7.699 2.139-8.135C2.244-8.9 1.201-8.529 .755-8.449-.575-8.212-1.365-7.621-2.569-7.279-.572-9.268-.205-11.413-2-13.722L-6.854-14.121-7.273-14.972-8.131-13.264C-7.486-16.54-6.449-19.951-4.494-22.669L-3.635-22.239-2.992-24.806-2.997-22.675-1.732-22.684C-1.206-25.049 .027-26.938-.426-29.511 1.684-29.865-.826-25.319 1.28-25.664L3.423-31.442 3.849-29.322 4.693-29.107C5.907-30.693 5.541-32.596 7.937-32.474 7.894-34.667 8.845-34.261 10.705-34.641L7.357-30.067C7.917-28.337 7.5-26.814 7.536-25.182 7.547-24.668 7.405-22.413 8.344-22.674 10.254-24.244 8.145-26.098 8.326-28.251 8.389-28.989 8.898-30.516 9.221-31.229 9.516-31.882 9.171-32.282 10.276-32.076 8.989-29.631 11.28-27.425 10.701-24.811 9.576-25.256 10.776-28.905 8.995-28.656 8.687-27.094 9.986-25.006 10.075-23.753 10.152-22.681 9.235-21.512 9.632-20.534 11.202-21.097 10.673-22.865 10.765-23.01 10.878-23.187 11.803-23.414 12.224-23.927 12.506-24.271 15.303-28.286 13.494-27.372L11.565-24.81C12.827-28.028 9.538-31.535 11.477-34.519 11.845-35.086 11.971-35.68 12.846-35.497 11.125-33.747 11.857-32.533 11.992-30.371L13.698-31.224 14.126-29.516C14.648-31.304 15.326-32.678 14.983-34.645L13.269-32.511C12.424-32.446 12.87-33.84 13.068-34.21 13.305-34.653 16.424-37.989 16.695-37.639 16.904-36.771 15.515-34.706 16.694-34.221 16.707-35.504 17.816-36.121 18.305-37.105 18.533-37.567 18.278-38.453 18.613-38.936 18.967-39.448 20.677-39.282 20.559-40.63 21.558-40.607 20.528-39.01 20.529-38.515 17.693-39.599 19.296-36.39 19.303-34.861 19.312-33.131 18.213-31.384 17.334-29.932 17.009-29.395 17.422-28.847 16.274-29.088 15.833-30.821 18.546-32.972 18.72-34.066 18.763-34.336 18.614-36.039 17.99-35.925 17.451-33.985 16.243-32.284 15.623-30.375 15.244-29.207 15.497-27.985 15.019-26.701 14.478-25.246 12.455-23.671 11.985-22.033L16.728-26.278 20.979-28.229 19.264-26.734C22.637-25.586 22.019-23.545 20.128-21.171 20.728-20.322 22.896-23.371 23.03-23.831 24.246-28.022 22.113-30.132 17.988-29.724L20.133-34.215 20.976-34.01 19.269-30.801C21.758-30.561 21.77-33.686 21.834-35.503 21.031-35.102 19.402-35.033 19.7-36.355L21.406-36.577 20.557-37.634 22.089-38.494 21.838-40.201C24.547-39.957 22.121-37.149 21.974-36.069 21.848-35.135 22.45-33.522 22.478-32.509 23.43-34.325 23.75-36.427 24.31-38.383 24.727-39.84 24.8-41.148 25.667-42.576 25.827-42.84 26.867-43.754 26.972-43.626 26.793-42.365 25.96-41.372 25.56-40.123 24.977-38.297 24.296-33.358 23.074-32.324 22.574-31.901 21.411-31.838 20.984-30.58 21.337-29.582 24.022-31.062 24.291-31.338 24.683-31.74 25.922-36.022 26.7-37.273 27.551-38.642 29.273-39.539 29.489-39.867 29.668-40.137 28.865-41.06 29.762-41.487L30.396-40.636C30.34-41.394 33.039-46.602 33.825-45.763 33.451-40.71 27.175-39.275 26.161-34.786 25.976-33.965 27.019-34.501 27.012-33.607 27.001-32.309 26.27-30.186 25.266-29.297 26.076-28.622 27.091-30.203 27.393-31.022 28.316-33.521 26.94-36.58 29.969-38.067 30.019-36.972 29.001-36.22 28.784-35.192 28.038-31.645 29.328-29.092 24.381-27.967L24.407-26.09C25.105-25.381 28.57-27.237 29.164-28.008 29.606-28.58 29.168-29.159 29.514-29.738 30.746-31.801 34.595-33.062 33.616-36.353 31.229-35.312 31.721-32.374 29.121-31.224L31.255-34.863 29.978-34.646C28.917-36.078 33.582-40.652 34.44-41.946 35.255-43.175 35.181-45.241 37.045-46.189 37.87-46.348 37.727-45.97 37.681-45.337 37.207-44.68 36.16-44.06 36.072-42.881ZM37.681-45.337C38.021-45.809 40.555-49.33 41.104-48.756L38.105-42.772C36.799-43.186 37.619-44.482 37.681-45.337" fill="#D48E61"/>
</g>
</svg>
