<svg xmlns="http://www.w3.org/2000/svg" xmlns:xlink="http://www.w3.org/1999/xlink" xmlns:inkscape="http://www.inkscape.org/namespaces/inkscape" version="1.1" width="275.65" height="76.0744" viewBox="0 0 275.65 76.0744">
<defs>
<clipPath id="clip_1">
<path transform="matrix(1,0,0,-1,0,76.0744)" d="M0 76.074H275.65V0H0Z"/>
</clipPath>
</defs>
<g clip-path="url(#clip_1)">
<path transform="matrix(1,0,0,-1,34.7905,48.981805)" d="M0 0C-4.55-.159-8.949 .025-13.485-.006-13.451 .326-13.416 .654-13.378 .976L-13.363 1.197C-13.36 1.205-13.353 1.208-13.349 1.216-13.115 3.173-12.815 4.886-12.435 5.825-12.191 6.894-11.889 7.957-11.528 9.012-10.609 11.699-4.768 11.973-3.185 9.416L-1.022 5.923C-.983 5.922-.96 5.922-.96 5.922-.96 5.922 .13 4.184 1.649 1.686 1.675 1.688 1.704 1.687 1.73 1.689 1.848 1.435 1.985 1.183 2.109 .929 2.278 .65 2.456 .353 2.633 .06 1.736 .053 .854 .022 0 0M234.494 29.59H238.602L240.86 31.843H236.435 224.413 216.414C213.941 34.302 207.368 39.651 205.401 41.013 202.29 43.168 197.557 45.582 192.911 46.971 189.747 47.918 183.995 49.592 181.134 48.754 180.307 47.976 185.872 43.021 187.777 42.245 191.503 40.727 195.698 41.352 198.882 40.63 204.927 39.26 208.418 34.858 211.751 31.843H207.879 197.182 192.529 178.64C180.388 20.252 176.934 8.39 170.315-2.514 167.997-6.333 159.503-6.279 157.25-2.445L141.585 24.222C140.224 26.737 139.817 29.184 140.08 31.843H122.368 117.891 114.231 105.921 94.444C101.008 23.493 102.716 14.375 103.598 5.141L103.585-1.221C103.58-3.311 99.335-4.125 97.533-2.381L97.478-2.327C86.118 8.654 74.604 19.661 63.57 30.772 63.245 31.1 63.018 31.451 62.988 31.843H40.061C41.654 29.045 47.257 25.833 47.697 22.954 46.833 6.362 50.981-11.048 40.35-26.66 24.444-8.483 14.889 11.675 2.41 30.869L1.399 31.843H-6.886V18.404C-6.886 17.93-12.395 11.116-13.221 9.819-21.034-2.453-25.296-15.357-34.79-27.093H-12.419L-13.327-21.577C-13.983-17.592-14.211-13.585-14.06-9.581-14.084-9.575-14.099-9.572-14.099-9.572-14.099-9.572-13.991-6.054-13.692-2.302-12.624-2.641-11.528-2.921-10.406-3.111-5.646-3.966-.639-3.608 3.959-2.157 5.678-5.055 7.514-8.242 8.871-10.842 8.868-10.842 8.866-10.842 8.864-10.842 9.916-12.685 10.897-14.536 11.68-16.407 13.243-20.142 13.44-23.312 13.964-27.093H40.061 40.72 60.633C46.482-14.135 49.046 2.182 49.047 17.37 49.047 18.742 51.815 19.268 52.997 18.123 53.009 18.111 53.021 18.099 53.033 18.087 63.001 8.476 73.091-1.156 82.66-10.929 87.802-16.18 93.225-21.418 97.163-27.093H105.099C106.111-12.53 103.011 2.927 106.862 17.279 108.03 21.63 109.863 25.639 112.588 29.59H119.2L152.137-27.093H162.682V-15.273C162.682-14.432 173.224-2.446 174.787-.331 182.048 9.493 187.294 19.914 195.194 29.506H209.677C211.767 26.414 212.924 23.048 213.454 19.696 214.979 10.051 215.595-15.684 210.153-24.172 209.487-25.211 208.355-26.053 207.879-27.093H236.435C232.351-23.094 230.792-17.739 230.351-13.003 229.509-3.962 229.55 8.391 230.322 17.449 230.663 21.444 231.774 25.868 234.494 29.59" fill="currentColor"/>
</g>
</svg>
